<svg id="avatar" viewBox="0 0 1136 1533" version="1.1" overflow="hidden" xmlns="http://www.w3.org/2000/svg" class="size-full max-h-[320px] md:max-h-[520px]"><g stroke="none" stroke-width="1" fill="none" fill-rule="evenodd"><g transform="translate(147.000000, 639.000000)">
        <path d="M659.9332,217.9773 C651.2492,214.8813 642.8792,211.3053 635.2532,206.0453 C613.2702,189.6823 598.9362,165.0573 585.3922,141.7263 C566.3142,107.7933 552.7232,71.6353 543.3282,33.9153 C539.2912,17.7093 537.9202,-1.0807 528.7482,-15.4487 C507.9562,-45.5337 446.9872,-41.6357 414.6122,-36.3547 C392.9322,-32.5187 388.4512,-8.2567 383.5272,9.6963 C379.4272,24.6133 376.7432,39.6993 374.4902,54.9873 C369.1302,58.5113 363.0792,61.3733 357.3112,63.8663 C294.4522,83.1413 283.4042,118.8753 259.3952,174.0733 C218.8442,254.3023 108.8092,285.7153 92.1882,380.6643 C81.4792,443.3493 111.9322,502.3223 143.3292,554.4343 C172.5692,611.3553 213.3902,638.6753 278.3992,625.2273 C339.3742,611.5493 397.9742,588.6683 457.8762,570.9873 C486.8892,563.8543 515.8562,545.3003 546.3752,551.7693 C609.2602,565.8923 673.8712,572.5323 738.3172,570.6993 C828.8012,574.3583 828.7872,487.5133 819.5002,420.2603 C812.9952,315.5993 760.2052,248.3953 659.9332,217.9773 L659.9332,217.9773 Z" id="ðŸŽ¨-Background" fill="#FFFFFF"></path>
        <path d="M665.9826,369.422 C673.5436,374.422 679.9026,382.003 685.0076,389.981 C663.6956,387.764 642.4206,385.208 621.1926,382.298 C623.9716,380.522 626.7766,378.785 629.6456,377.145 C640.1126,371.247 654.2946,361.694 665.9826,369.422 Z M311.8976,432.42 C307.9926,430.891 306.4816,424.937 304.9596,421.524 C300.1876,410.821 295.8326,399.936 291.3016,389.129 C308.5056,384.225 325.2356,378.784 343.0576,376.17 C362.2206,373.362 381.6666,372.682 401.0066,373.313 C440.1806,374.591 478.9906,380.993 517.5046,387.858 C555.9736,394.715 594.4406,401.303 633.1786,406.473 C671.1316,411.538 709.2046,415.245 747.3486,418.499 C754.7596,419.132 767.1166,421.797 773.0766,415.965 C777.7956,411.346 777.9486,402.827 772.0436,399.072 C768.3656,396.731 763.0366,396.697 758.8346,396.157 C753.5426,395.476 748.2296,395.023 742.9056,394.67 C740.7366,394.527 738.5676,394.395 736.3976,394.263 C753.8146,387.696 772.0056,384.115 790.8876,385.113 C791.9556,391.6 796.7666,398.274 799.3996,403.624 C803.9976,412.964 807.5816,422.417 809.9346,432.573 C814.8526,453.801 815.0666,475.833 813.6776,497.484 C812.4016,515.536 809.6606,535.504 795.5006,548.289 C784.7796,557.969 769.6536,561.553 755.6206,562.68 C739.3106,563.99 722.7486,562.591 706.5756,560.405 C683.8916,557.338 661.1016,553.282 638.8636,547.846 C595.7926,537.318 554.5086,520.566 516.4196,497.854 C497.8446,486.779 480.1206,474.319 461.2906,463.665 C442.1036,452.807 421.6876,444.384 400.2496,439.154 C376.2586,433.301 351.1786,430.803 326.5206,432.247 C322.2416,432.497 316.0596,434.049 311.8976,432.42 Z M284.0956,421.552 C286.6166,429.733 288.5456,439.074 293.9266,445.948 C299.2566,452.76 307.2976,455.164 315.6276,455.77 C325.6716,456.499 335.8336,456.032 345.8996,456.406 C366.5446,457.173 386.9066,460.526 406.6426,466.677 C425.0346,472.41 442.1076,481.352 458.5536,491.272 C473.7616,500.446 488.5236,510.295 503.7366,519.441 C499.6876,521.297 495.6846,523.305 491.6596,525.053 C483.2176,528.719 474.7236,532.256 466.1916,535.705 C449.3666,542.505 432.4706,549.14 415.4016,555.304 C380.9836,567.733 345.9996,578.592 310.5946,587.842 C293.7086,592.254 276.5826,597.407 259.0396,598.141 C243.4836,598.791 229.0746,594.394 216.5286,585.145 C190.5066,565.961 169.8036,538.271 153.0676,510.958 C143.1246,494.731 134.4476,477.681 127.2706,460.052 C123.6406,451.137 120.3486,442.085 117.3856,432.927 C115.9956,428.627 114.6776,424.303 113.4296,419.959 C112.8806,418.049 112.3546,416.133 111.8336,414.215 C138.4426,406.095 165.3676,398.765 192.9246,394.696 C207.6376,392.523 222.5466,391.423 237.4206,391.583 C244.8036,391.662 252.1826,392.061 259.5266,392.823 C263.4796,393.233 267.4166,393.761 271.3366,394.415 C272.9566,394.684 274.6216,395.082 276.2916,395.375 C278.8426,404.116 281.4146,412.85 284.0956,421.552 Z M834.1376,386.798 C835.5716,383.897 836.1766,381.043 836.6906,377.885 C837.0826,375.476 838.1226,372.085 837.2116,368.957 C836.1916,365.454 833.4126,362.321 831.4176,359.333 C829.2146,356.031 827.0136,352.727 824.8156,349.421 C820.4186,342.81 816.0316,336.193 811.6516,329.571 C793.7646,302.53 775.9996,275.411 758.2066,248.309 C742.4166,224.258 726.8926,199.991 710.6216,176.263 C696.7086,155.973 681.5436,136.018 662.4996,120.238 C638.4206,100.286 609.7486,90.887 579.7996,83.553 C576.5286,80.158 572.1596,78.304 567.4896,78.68 C560.8916,71.197 555.6476,65.97 553.2706,56.454 C552.1316,51.896 552.4886,39.089 548.0496,36.392 C542.7766,33.188 540.022734,37.4286356 538.5686,42.208 C533.7036,58.198 539.2876,79.696 552.1376,95.713 C546.7236,114.424 539.5456,141.016 526.7406,156.006 C513.0286,172.057 494.0656,177.053 473.6056,177.382 C434.5876,178.01 395.6106,163.509 365.8496,138.377 C356.8036,130.739 348.4026,122.208 340.8016,113.135 C335.1006,106.328 328.3566,95.823 323.8966,87.883 C323.8966,84.7887764 320.243294,81.553 357.4366,79.053 C394.629906,76.553 397.4506,25.626 398.2776,18.695 C398.9496,13.067 401.8076,4.331 397.8416,-0.258 C396.1586,-2.207 392.7046,-2.521 390.5706,-1.197 C386.5466,1.302 385.2246,7.692 383.9596,12.031 C382.1876,18.11 376.3946,55.837 365.4176,60.205 C360.2786,62.25 354.3846,62.288 348.9486,62.666 C342.2356,63.135 335.5086,63.478 328.8226,64.259 C326.3566,64.547 323.6666,65.345 321.2336,65.368 C319.6506,65.383 318.0176,64.614 316.4876,64.074 C311.3236,62.249 306.1636,63.618 300.8436,64.333 C253.8076,70.654 205.3766,85.081 165.2566,111.04 C129.8946,133.92 104.9816,166.825 88.5426,205.297 C71.7696,244.559 62.1556,287.016 54.0986,328.812 C51.3996,342.816 49.0426,356.885 47.0176,371.002 C45.0606,384.643 42.6126,398.589 42.0266,412.368 C41.7946,417.82 43.0976,422.885 45.1026,427.865 C47.3606,433.47 52.6976,435.68 57.8166,438.297 C69.0536,444.045 80.9076,448.503 93.1206,451.66 C100.5816,465.233 106.8606,479.336 111.9066,493.973 C110.0346,497.682 109.9956,503.221 109.6356,506.826 C108.7426,515.803 108.3606,524.827 108.2806,533.845 C108.1196,551.92 109.2066,569.977 110.0586,588.024 C110.9226,606.328 113.7946,678.547 114.2626,687.366 C114.6266,694.217 114.1366,703.8 117.7456,709.882 C123.2916,719.231 136.9796,718.916 143.3196,711.336 C300.8436,745.199801 596.9443,735 716.1986,717.962 C731.714787,715.745184 726.8426,718.204 730.7886,714.284 C733.7496,711.34 736.2696,706.299 737.0886,702.248 C738.1826,696.84 736.4166,691.946 733.3206,687.57 C730.0656,682.97 729.4726,675.52 728.2636,670.05 C725.4046,657.119 723.9836,600.329 722.6476,594.036 C722.2316,592.075 721.8286,590.002 721.3426,587.928 C743.2176,590 766.0106,590 786.8216,582.684 C798.6226,578.535 809.6286,572.018 818.1006,562.713 C828.3586,551.446 834.0656,537.262 837.0006,522.457 C840.7876,503.366 841.5916,483.591 840.8476,464.184 C839.8136,441.248 836.0096,417.989 826.5676,396.93 C829.6746,394.045 832.2786,390.564 834.1376,386.798 Z" id="ðŸ–-Ink" fill="#000000"></path>
    </g><g fill="#333" transform="translate(372.000000, 180.000000)">
        <path d="M244.801076,58.7061513 C289.572611,58.7061513 343.290355,80.4107214 347.857576,80.8448128 L347.980873,80.851412 C350.383805,80.851412 359.773072,88.0046317 376.148674,102.311071 L358.412048,136.905077 L359.847401,138.275654 C366.716004,144.860995 372.579732,150.86334 377.20818,155.594994 C414.999829,194.229324 421.792237,345.918858 412.88601,398.818005 C403.979783,451.717153 387.483712,503.479944 310.685218,503.479944 C233.886725,503.479944 148.446655,457.302629 135.285147,442.922462 C126.510808,433.335685 116.654935,428.742788 105.717528,429.143771 C105.268005,428.576557 104.822108,428.011003 104.379837,427.447111 L102.770605,427.219146 C87.633459,425.026858 76.7873358,422.076066 70.2326472,418.367754 C57.4294952,411.124377 43.3572802,373.045104 43.3572802,364.656723 C43.3572802,356.352227 22.3445065,295.939883 21.924251,289.546864 L21.9178621,289.36978 C21.9178621,284.025444 -5.53321454,259.457893 -5.53321454,251.655721 C-5.53321454,243.853549 -11.0664291,244.32691 -5.53321454,216.833266 L-3.92565876,208.756436 C1.96255037,179.483802 13.4873849,131.012555 57.4294952,109.950337 C105.717528,86.8050433 199.577304,58.7061513 244.801076,58.7061513 Z" id="Path" fill="#FFFFFF"></path>
        <path d="M49.9759,108.863 C74.05864,83.3012 210.780353,43.763174 279.951662,52.1442952 L282.0269,52.413 C287.5469,53.113 292.9869,54.173 298.3559,55.613 C315.7099,59.666 333.6359,65.803 347.9749,76.054 C359.9459,84.44 397.7089,98.135 386.5789,120.073 C390.7059,127.892 392.2459,137.552 389.4569,145.253 C389.1059,147.913 388.2859,150.363 387.2369,152.903 C396.0539,165.914 403.0349,180.628 408.6859,194.623 C418.5609,229.844 424.7059,266.498 425.6059,302.433 C428.5999,370.705 421.1139,452.256 361.6519,496.404 C325.7309,524.379 269.4629,525.319 229.0959,490.633 C226.8049,487.922 216.0319,480.606 219.6269,479.323 C220.6969,480.453 221.7969,481.553 222.9169,482.633 C222.8659,482.513 222.8559,482.393 222.8769,482.263 L221.823473,481.309028 C219.839749,479.473835 217.269834,476.812131 220.1969,477.333 C220.3259,477.483 220.4669,477.613 220.6059,477.763 C221.225837,478.134875 221.694181,478.457271 222.05859,478.741515 L222.246041,478.891534 L222.188128,478.831293 C220.502038,477.033357 219.491192,475.199546 222.012175,476.370731 L222.3459,476.533 C223.4669,477.713 224.6059,478.843 225.7659,479.943 C225.7469,479.813 225.7659,479.683 225.8369,479.543 L224.75535,478.498176 C223.699588,477.46362 223.860724,477.459206 224.3769,476.623 C222.1329,473.478 226.3219,475.346 226.6159,476.573 C229.2369,475.953 231.5379,480.873 233.2259,481.473 C307.2249,538.363 414.6119,487.884 412.8729,329.359 L412.846346,326.257389 C412.337744,275.567908 408.07202,223.46856 387.1059,177.583 C385.0669,173.163 382.7859,168.863 380.2769,164.703 C378.5469,161.583 376.6969,158.543 374.7069,155.583 C369.1359,155.133 363.6359,154.113 358.2169,152.533 C356.3559,152.063 354.5159,151.543 352.6769,150.933 C325.7969,152.399 299.5159,153.994 272.5609,155.506 L264.141372,156.030389 C241.307275,157.49837 217.69246,159.84959 199.2659,173.973 C181.1859,186.831 181.1039,212.186 165.6269,226.303 C143.5569,241.282 143.3959,254.789 139.1459,276.863 C139.4609,293.503 150.9989,317.68 129.8259,324.683 C133.3979,329.776 128.4189,327.329 128.0269,325.543 C127.9869,325.553 127.9469,325.563 127.9169,325.563 C131.0999,331.48 126.4209,327.754 126.0069,325.853 C125.7569,325.783 125.5069,325.603 125.2569,325.353 C128.4639,330.537 123.2799,326.907 123.5869,325.963 C117.3899,316.438 104.6359,314.959 95.6459,317.483 C95.5359,317.823 95.1369,317.853 94.8869,317.673 C56.6599,325.957 66.5229,405.093 105.6969,397.443 C107.3739,397.101 107.3339,397.906 107.6669,397.983 C106.7619,395.607 109.3129,396.574 109.2859,397.073 L109.441338,397.065453 C109.564505,397.054593 109.514122,397.041111 109.6059,397.073 C108.7309,392.214 113.6549,399.254 113.2659,399.543 C113.4169,399.453 113.5869,399.403 113.7369,399.383 L113.567399,398.921749 C112.750208,396.744712 112.820264,397.649576 112.8259,396.403 C112.2119,394.862 112.1669,395.536 112.3109,394.532 C114.4689,392.86 115.1059,397.932 115.8259,398.303 C114.5919,396.583 115.5729,395.178 116.7369,396.112 C125.5599,414.67 136.9569,432.107 151.6859,445.843 C153.2969,447.113 154.9269,448.363 156.6159,449.543 C162.8809,455 172.4909,458.509 178.3559,463.343 C178.3559,463.423 178.3169,463.523 178.2569,463.623 L178.39115,463.74425 L178.39115,463.74425 L178.5269,463.873 L180.5669,464.853 C181.1669,465.363 181.7069,465.933 182.1859,466.563 C182.6969,467.153 183.1459,467.803 183.5269,468.493 C183.7169,469.333 183.2969,469.683 182.4969,469.323 C182.1459,469.203 181.7969,469.063 181.4469,468.933 C181.4669,468.963 181.4759,468.983 181.4969,469.003 C181.61165,469.176571 182.388451,470.977375 181.493354,470.684363 L181.3869,470.643 C180.8959,470.463 180.4069,470.263 179.9269,470.073 C180.4969,470.783 181.0159,471.553 181.4759,472.203 C181.9669,472.713 182.2659,473.313 182.3869,473.993 C182.3659,474.373 182.1569,474.533 181.7769,474.483 C181.1969,474.293 180.6269,474.093 180.0559,473.883 L180.218285,474.192775 C180.621712,474.986299 181.195061,476.317194 180.1769,475.873 C179.3059,475.603 178.4669,475.293 177.6269,474.953 C177.5559,475.093 177.4169,475.143 177.1369,475.013 C174.4669,474.063 171.8869,472.903 169.4169,471.533 C167.2469,469.953 165.0559,468.403 162.8769,466.833 C160.8259,465.603 158.8459,464.233 156.9569,462.693 C144.3109,454.525 133.2399,444.149 124.4569,432.593 C109.7679,445.314 80.3989,433.161 62.2319,423.203 C46.1629,414.303 39.8469,397.847 38.2139,380.105 C34.8189,356.219 15.2989,348.043 16.6569,295.633 C16.6269,295.643 16.5959,295.643 16.5559,295.643 C15.8459,295.433 15.1569,295.153 14.5069,294.793 C13.8369,294.473 13.2069,294.093 12.6159,293.633 L11.8859,292.623 L11.8859,292.623 C11.5069,292.413 11.1669,292.193 10.9069,291.973 L10.7720626,292.146894 C10.3452333,292.661965 10.63215,291.887 10.6569,291.733 L9.38875352,290.0084 C6.38188437,285.903078 3.083025,281.29675 0.3959,277.613 L0.311258601,277.762679 C0.250471429,277.875653 0.218328571,277.957286 0.2469,277.993 C-6.1481,268.805 -12.1621,257.707 -13.8331,246.963 C-15.8061,238.687 -15.0351,230.159 -13.3141,222.493 C-5.9351,195.648 18.2369,134.9 49.9759,108.863 Z M223.523686,480.116032 L223.122951,479.759136 L223.475308,480.200613 C223.659955,480.42876 223.84899,480.63382 224.1569,480.843 C224.1369,480.773 224.1369,480.703 224.1459,480.623 C223.941698,480.467121 223.732905,480.296655 223.523686,480.116032 Z M279.6459,65.633 C232.7379,61.6 186.6009,71.934 141.8389,84.443 L138.751029,85.3305184 C113.298885,92.5930675 86.385913,99.1281948 64.8769,114.673 C34.8259,137.69 19.3079,174.306 5.7659,208.113 C-6.0591,233.231 -0.0141,261.554 17.8059,279.093 C19.6599,261.664 22.8209,244.745 27.7609,227.962 C28.7919,225.34 28.0119,224.481 30.2339,224.139 C33.5899,269.367 17.0609,302.783 49.7709,356.385 C63.9639,381.677 47.5339,400.183 87.6139,413.492 L88.6985408,413.90645 C97.0486222,417.057302 106.167483,419.544417 114.3459,417.783 L113.613193,416.591163 C112.865939,415.363801 112.639181,414.768 113.7259,414.243 C113.6969,414.183 113.6569,414.123 113.6159,414.053 C112.7369,412.393 111.8869,410.713 111.0759,409.013 C110.7469,409.123 110.4169,409.203 110.0759,409.293 C110.2969,409.703 110.3259,410.113 109.7069,410.253 C107.5033,411.009 105.240464,411.312022 102.924085,411.170197 L102.4269,411.133 C99.8099,410.973 98.1609,410.496 96.6859,410.053 C96.1969,409.973 95.7069,409.893 95.2259,409.793 C90.4809,408.741 85.4579,406.065 82.2069,403.413 C45.1489,382.365 48.9789,310.716 94.6569,303.943 C95.5939,258.831 117.0509,182.723 152.6609,139.736 C184.8489,100.195 272.7229,83.057 333.8589,89.1 C334.7499,89.395 335.6409,89.693 336.5319,89.994 C345.9639,90.832 354.9529,95.034 364.3919,96.986 C357.6149,91.907 349.9269,88.524 342.0079,85.649 C326.2299,75.998 308.1419,70.776 290.6669,67.093 C287.0469,66.203 283.3769,65.713 279.6459,65.633 Z M92.5662,340.1829 C95.0222,338.8489 94.7412,340.1369 95.3062,339.7629 C112.9722,338.3219 132.0212,353.7889 141.8962,366.6829 C141.1162,367.4929 139.0062,365.0929 138.6362,364.7129 C138.5862,364.7629 138.5262,364.8029 138.4662,364.8229 L138.741174,365.210988 C142.74361,370.954718 134.809221,364.195942 134.0662,362.8029 C133.9362,362.8729 133.8062,362.9129 133.6562,362.8829 C134.2852,363.4999 136.2062,365.1089 136.5362,366.2529 L137.045494,366.676733 C141.847898,370.78921 141.449332,373.882812 135.9972,368.0429 C136.1262,368.3129 136.1762,368.5629 136.0862,368.7629 L136.27393,368.888003 C138.954977,370.761539 141.159882,375.984218 135.5562,370.6229 C136.1392,374.5389 130.0032,366.9699 129.8062,367.0229 C119.1882,358.6879 103.5552,350.5819 90.2362,349.4929 L89.77779,349.440232 C87.3337388,349.126208 86.1782,348.401043 87.0362,346.8029 C84.0262,346.0869 84.7312,344.6049 86.1562,344.6529 C84.0332,343.2569 85.9442,341.9219 87.1762,342.4429 C86.3292,340.0979 89.7262,341.6599 90.0362,341.3329 C91.7992,338.6139 92.2742,340.8819 92.5662,340.1829 Z M55.5363,194.8329 C64.0213,191.7249 89.0843,201.0289 87.0793,213.3509 C85.8853,216.1799 81.9513,217.8009 79.1863,216.2039 L75.5774719,213.780141 C69.2971698,209.574177 63.6330368,205.886111 56.8903,202.2179 C53.2203,200.3969 51.6403,196.5309 55.5363,194.8329 Z M103.8112,176.5217 L100.534261,174.389194 C82.8503248,162.815592 57.8511,145.27882 102.1862,163.4227 C107.2392,165.5897 113.9532,166.8717 116.7102,171.6837 C121.0412,180.5527 109.6432,181.1487 103.8112,176.5217 Z M105.7984,124.5927 C104.3794,119.2077 122.0364,125.5267 127.1764,127.1927 L127.959291,127.488387 C132.959307,129.351465 138.6908,131.0798 141.6814,135.3947 C145.1854,141.3567 138.0934,142.5917 133.7004,139.8987 C124.6934,134.0127 114.8184,129.5717 105.7984,124.5927 Z M150.6987,99.5078 C140.76009,88.65443 167.358628,99.0515882 171.342946,101.937672 L171.4567,102.0228 C174.4297,104.1158 173.8267,108.6238 171.0337,109.9478 C163.0867,110.0988 157.2387,103.4748 150.6987,99.5078 Z M195.9247,87.6166 C180.1247,76.2616 200.9377,81.6626 208.1667,86.1126 C213.0937,90.4576 208.0187,97.7926 195.9247,87.6166 Z" id="ðŸ–-Ink" fill="#000"></path>
    </g><g transform="translate(531.000000, 366.000000)">
        <path d="M157.853264,261.089186 L159.986434,260.522285 C167.625732,258.441025 175.553661,255.136935 182.8485,259.665 C185.4825,261.3 185.8795,264.777 183.7975,267.027 C177.888371,273.411339 169.166228,272.172661 161.174911,272.236758 L160.7825,272.241 C152.7425,272.352 144.7625,271.951 136.8055,270.798 C135.7565,270.646 135.5495,268.903 136.5025,268.485 C143.4305,265.447824 150.556036,263.052862 157.853264,261.089186 L157.853264,261.089186 Z M170.814304,144.367155 C178.365682,148.9572 189.871664,159.660291 181.748119,171.039573 C172.185929,181.073062 158.418535,169.568982 151.634201,164.366134 C145.343449,160.333898 138.275437,170.704507 144.112,175.412823 C193.135736,211.708059 213.030606,145.567387 174.633685,138.970386 C170.406047,138.243425 168.835891,142.947174 170.814304,144.367155 Z M223.3163,84.0053 C235.4983,83.6323 235.5093,102.9853 223.3163,102.9333 C219.6763,102.9173 216.0363,102.9163 212.3963,102.9083 C214.5113,110.6193 213.3033,119.8143 209.4833,126.2913 C206.9633,130.5663 200.9323,131.3433 197.4093,127.8473 C191.3273,121.8113 190.1283,112.9843 192.2773,104.9803 L191.8353,103.9333 L191.8353,103.9333 C191.6913,103.5903 191.5883,103.2433 191.5043,102.8943 C179.738967,102.9043 167.973633,102.932522 156.2083,102.951707 L138.5603,102.9703 C127.1023,102.9743 115.6393,103.0673 104.1803,102.9603 C104.3213,103.1733 104.4623,103.3853 104.5773,103.6283 C105.2923,105.1333 105.5953,107.0333 105.8203,108.6603 C106.2043,111.4523 106.1583,114.4593 105.7183,117.2403 C105.3973,119.2723 104.8073,121.6923 103.6763,123.6073 L103.6693,123.6473 L103.6693,123.6473 C103.1363,125.9193 102.4633,128.0943 100.7063,129.7333 C100.1783,130.2243 99.6633,130.5743 99.1193,130.8223 C98.0923,131.8973 96.7703,132.6083 95.0333,132.630932 C94.1113,132.6413 93.1003,132.3723 92.1203,131.9903 C90.6133,132.1163 89.0573,131.4343 87.7243,130.8303 C86.6553,130.3453 85.6743,129.7013 84.8833,128.8613 C84.5123,128.7733 84.1383,128.6283 83.7643,128.3973 C81.4723,126.9873 80.5963,124.1613 80.4773,121.6093 C80.4693,121.4543 80.4753,121.2913 80.4703,121.1343 C80.3853,120.7883 80.3093,120.4403 80.2513,120.0903 C79.4893,115.5553 80.4153,110.4483 81.3853,106.0413 C81.6293,104.9383 81.8303,103.6573 82.1293,102.4183 C79.8423,102.3293 77.5573,102.2413 75.2703,102.1473 C69.5423,101.9133 62.5513,102.6803 57.2523,100.2593 C56.8663,100.0843 56.9703,99.5703 57.2523,99.3693 C62.1445222,95.8722167 69.7457336,95.3062483 75.6375743,94.1545348 L76.1383,94.0543 C83.1643,92.6133 90.1863,91.4013 97.2833,90.3663 C110.9443,88.3743 124.7803,87.3023 138.5603,86.5303 C166.7733,84.9503 195.0743,84.8683 223.3163,84.0053 Z" id="ðŸ–-Ink" fill="#000000"></path>
    </g><g transform="translate(494.999934, 517.999659)"></g><g transform="translate(419.000000, 421.000000)">
        <path d="M372.3111,95.4577 C360.1701,108.0027 339.9021,111.6027 323.7491,104.8747 C282.2731,87.5457 302.5741,33.4957 334.5611,18.9807 C338.5571,17.9847 343.8941,15.6217 348.7611,15.0857 C349.2011,14.8697 350.1591,15.4947 351.3201,14.9037 C386.5911,18.8417 394.6231,73.5937 372.3111,95.4577 M238.5331,98.6687 C224.9161,116.7297 199.6001,122.3017 178.9161,113.9057 C138.0541,97.8137 152.5471,49.8847 180.5041,31.0947 C239.5611,8.9037 263.9481,65.3677 238.5331,98.6687 M149.9531,58.6507 C149.9151,58.6327 149.8771,58.6237 149.8381,58.6057 C150.0541,58.5107 150.2701,58.4157 150.4851,58.3187 C150.4151,58.5017 150.3391,58.6827 150.2711,58.8657 C150.1651,58.7927 150.0721,58.7077 149.9531,58.6507 M400.4231,39.1277 C397.0891,39.1347 392.2731,39.6827 389.5131,41.9957 C382.7071,19.0427 357.5851,-2.2003 335.7371,13.2897 C318.5321,18.8227 305.7651,31.0937 298.5091,47.4077 C285.4261,39.6257 264.8541,42.9487 253.5091,53.2397 C246.0791,28.6887 227.7931,20.0917 206.0281,18.8227 C182.2721,14.9317 158.5941,38.0027 151.2061,56.5107 C145.0631,55.8117 135.8841,53.8567 130.1051,57.6477 C92.5981,47.8117 27.0231,42.3887 19.3981,47.8537 C13.9641,49.9387 10.9821,62.7647 18.5721,63.4567 C25.1861,62.5177 17.8001,54.0587 24.4671,53.1357 C59.9901,50.9337 94.4751,58.0877 129.6221,61.0897 C132.7601,65.3107 142.8991,66.7227 148.3081,65.0267 C139.7891,96.4227 158.1791,117.7827 185.7341,124.1807 C228.4011,133.9817 265.5221,95.8137 254.3651,56.1137 C267.2901,49.6837 282.1571,49.9597 296.2371,53.3467 C272.7091,139.9367 412.1661,136.0517 390.3851,44.9627 C404.8801,52.1727 408.0281,40.5827 400.4231,39.1277" id="ðŸ–-Ink" fill="#000000"></path>
    </g></g></svg>