<svg id="avatar" viewBox="0 0 1136 1533" version="1.1" overflow="hidden" xmlns="http://www.w3.org/2000/svg" class="size-full max-h-[320px] md:max-h-[520px]"><g stroke="none" stroke-width="1" fill="none" fill-rule="evenodd"><g transform="translate(147.000000, 639.000000)">
        <path d="M659.9332,217.9773 C651.2492,214.8813 642.8792,211.3053 635.2532,206.0453 C613.2702,189.6823 598.9362,165.0573 585.3922,141.7263 C566.3142,107.7933 552.7232,71.6353 543.3282,33.9153 C539.2912,17.7093 537.9202,-1.0807 528.7482,-15.4487 C507.9562,-45.5337 446.9872,-41.6357 414.6122,-36.3547 C392.9322,-32.5187 388.4512,-8.2567 383.5272,9.6963 C379.4272,24.6133 376.7432,39.6993 374.4902,54.9873 C369.1302,58.5113 363.0792,61.3733 357.3112,63.8663 C294.4522,83.1413 283.4042,118.8753 259.3952,174.0733 C218.8442,254.3023 108.8092,285.7153 92.1882,380.6643 C81.4792,443.3493 111.9322,502.3223 143.3292,554.4343 C172.5692,611.3553 213.3902,638.6753 278.3992,625.2273 C339.3742,611.5493 397.9742,588.6683 457.8762,570.9873 C486.8892,563.8543 515.8562,545.3003 546.3752,551.7693 C609.2602,565.8923 673.8712,572.5323 738.3172,570.6993 C828.8012,574.3583 828.7872,487.5133 819.5002,420.2603 C812.9952,315.5993 760.2052,248.3953 659.9332,217.9773 L659.9332,217.9773 Z" id="ðŸŽ¨-Background" fill="#FFFFFF"></path>
        <path d="M665.9826,369.422 C673.5436,374.422 679.9026,382.003 685.0076,389.981 C663.6956,387.764 642.4206,385.208 621.1926,382.298 C623.9716,380.522 626.7766,378.785 629.6456,377.145 C640.1126,371.247 654.2946,361.694 665.9826,369.422 Z M311.8976,432.42 C307.9926,430.891 306.4816,424.937 304.9596,421.524 C300.1876,410.821 295.8326,399.936 291.3016,389.129 C308.5056,384.225 325.2356,378.784 343.0576,376.17 C362.2206,373.362 381.6666,372.682 401.0066,373.313 C440.1806,374.591 478.9906,380.993 517.5046,387.858 C555.9736,394.715 594.4406,401.303 633.1786,406.473 C671.1316,411.538 709.2046,415.245 747.3486,418.499 C754.7596,419.132 767.1166,421.797 773.0766,415.965 C777.7956,411.346 777.9486,402.827 772.0436,399.072 C768.3656,396.731 763.0366,396.697 758.8346,396.157 C753.5426,395.476 748.2296,395.023 742.9056,394.67 C740.7366,394.527 738.5676,394.395 736.3976,394.263 C753.8146,387.696 772.0056,384.115 790.8876,385.113 C791.9556,391.6 796.7666,398.274 799.3996,403.624 C803.9976,412.964 807.5816,422.417 809.9346,432.573 C814.8526,453.801 815.0666,475.833 813.6776,497.484 C812.4016,515.536 809.6606,535.504 795.5006,548.289 C784.7796,557.969 769.6536,561.553 755.6206,562.68 C739.3106,563.99 722.7486,562.591 706.5756,560.405 C683.8916,557.338 661.1016,553.282 638.8636,547.846 C595.7926,537.318 554.5086,520.566 516.4196,497.854 C497.8446,486.779 480.1206,474.319 461.2906,463.665 C442.1036,452.807 421.6876,444.384 400.2496,439.154 C376.2586,433.301 351.1786,430.803 326.5206,432.247 C322.2416,432.497 316.0596,434.049 311.8976,432.42 Z M284.0956,421.552 C286.6166,429.733 288.5456,439.074 293.9266,445.948 C299.2566,452.76 307.2976,455.164 315.6276,455.77 C325.6716,456.499 335.8336,456.032 345.8996,456.406 C366.5446,457.173 386.9066,460.526 406.6426,466.677 C425.0346,472.41 442.1076,481.352 458.5536,491.272 C473.7616,500.446 488.5236,510.295 503.7366,519.441 C499.6876,521.297 495.6846,523.305 491.6596,525.053 C483.2176,528.719 474.7236,532.256 466.1916,535.705 C449.3666,542.505 432.4706,549.14 415.4016,555.304 C380.9836,567.733 345.9996,578.592 310.5946,587.842 C293.7086,592.254 276.5826,597.407 259.0396,598.141 C243.4836,598.791 229.0746,594.394 216.5286,585.145 C190.5066,565.961 169.8036,538.271 153.0676,510.958 C143.1246,494.731 134.4476,477.681 127.2706,460.052 C123.6406,451.137 120.3486,442.085 117.3856,432.927 C115.9956,428.627 114.6776,424.303 113.4296,419.959 C112.8806,418.049 112.3546,416.133 111.8336,414.215 C138.4426,406.095 165.3676,398.765 192.9246,394.696 C207.6376,392.523 222.5466,391.423 237.4206,391.583 C244.8036,391.662 252.1826,392.061 259.5266,392.823 C263.4796,393.233 267.4166,393.761 271.3366,394.415 C272.9566,394.684 274.6216,395.082 276.2916,395.375 C278.8426,404.116 281.4146,412.85 284.0956,421.552 Z M834.1376,386.798 C835.5716,383.897 836.1766,381.043 836.6906,377.885 C837.0826,375.476 838.1226,372.085 837.2116,368.957 C836.1916,365.454 833.4126,362.321 831.4176,359.333 C829.2146,356.031 827.0136,352.727 824.8156,349.421 C820.4186,342.81 816.0316,336.193 811.6516,329.571 C793.7646,302.53 775.9996,275.411 758.2066,248.309 C742.4166,224.258 726.8926,199.991 710.6216,176.263 C696.7086,155.973 681.5436,136.018 662.4996,120.238 C638.4206,100.286 609.7486,90.887 579.7996,83.553 C576.5286,80.158 572.1596,78.304 567.4896,78.68 C560.8916,71.197 555.6476,65.97 553.2706,56.454 C552.1316,51.896 552.4886,39.089 548.0496,36.392 C542.7766,33.188 540.022734,37.4286356 538.5686,42.208 C533.7036,58.198 539.2876,79.696 552.1376,95.713 C546.7236,114.424 539.5456,141.016 526.7406,156.006 C513.0286,172.057 494.0656,177.053 473.6056,177.382 C434.5876,178.01 395.6106,163.509 365.8496,138.377 C356.8036,130.739 348.4026,122.208 340.8016,113.135 C335.1006,106.328 328.3566,95.823 323.8966,87.883 C323.8966,84.7887764 320.243294,81.553 357.4366,79.053 C394.629906,76.553 397.4506,25.626 398.2776,18.695 C398.9496,13.067 401.8076,4.331 397.8416,-0.258 C396.1586,-2.207 392.7046,-2.521 390.5706,-1.197 C386.5466,1.302 385.2246,7.692 383.9596,12.031 C382.1876,18.11 376.3946,55.837 365.4176,60.205 C360.2786,62.25 354.3846,62.288 348.9486,62.666 C342.2356,63.135 335.5086,63.478 328.8226,64.259 C326.3566,64.547 323.6666,65.345 321.2336,65.368 C319.6506,65.383 318.0176,64.614 316.4876,64.074 C311.3236,62.249 306.1636,63.618 300.8436,64.333 C253.8076,70.654 205.3766,85.081 165.2566,111.04 C129.8946,133.92 104.9816,166.825 88.5426,205.297 C71.7696,244.559 62.1556,287.016 54.0986,328.812 C51.3996,342.816 49.0426,356.885 47.0176,371.002 C45.0606,384.643 42.6126,398.589 42.0266,412.368 C41.7946,417.82 43.0976,422.885 45.1026,427.865 C47.3606,433.47 52.6976,435.68 57.8166,438.297 C69.0536,444.045 80.9076,448.503 93.1206,451.66 C100.5816,465.233 106.8606,479.336 111.9066,493.973 C110.0346,497.682 109.9956,503.221 109.6356,506.826 C108.7426,515.803 108.3606,524.827 108.2806,533.845 C108.1196,551.92 109.2066,569.977 110.0586,588.024 C110.9226,606.328 113.7946,678.547 114.2626,687.366 C114.6266,694.217 114.1366,703.8 117.7456,709.882 C123.2916,719.231 136.9796,718.916 143.3196,711.336 C300.8436,745.199801 596.9443,735 716.1986,717.962 C731.714787,715.745184 726.8426,718.204 730.7886,714.284 C733.7496,711.34 736.2696,706.299 737.0886,702.248 C738.1826,696.84 736.4166,691.946 733.3206,687.57 C730.0656,682.97 729.4726,675.52 728.2636,670.05 C725.4046,657.119 723.9836,600.329 722.6476,594.036 C722.2316,592.075 721.8286,590.002 721.3426,587.928 C743.2176,590 766.0106,590 786.8216,582.684 C798.6226,578.535 809.6286,572.018 818.1006,562.713 C828.3586,551.446 834.0656,537.262 837.0006,522.457 C840.7876,503.366 841.5916,483.591 840.8476,464.184 C839.8136,441.248 836.0096,417.989 826.5676,396.93 C829.6746,394.045 832.2786,390.564 834.1376,386.798 Z" id="ðŸ–-Ink" fill="#000000"></path>
    </g><g fill="#333" transform="translate(372.000000, 180.000000)">
        <path d="M405.2634,225.3185 C416.6414,217.1465 399.6754,190.2595 393.9114,182.2595 C388.8974,171.8235 383.8834,161.3865 378.8684,150.9495 C379.4784,142.3905 371.1204,134.7755 362.8614,137.3795 C355.6764,132.2265 343.6424,134.6935 339.9904,142.7615 C260.5434,108.1595 123.0774,122.5545 115.9684,229.3265 C100.6004,259.7265 85.3684,290.3865 71.7334,321.6075 C52.8154,322.6235 43.6454,345.6065 54.9084,360.4595 C56.4074,384.5785 71.6984,386.4875 92.1124,385.4145 C100.3104,387.5735 108.8084,388.7435 114.9564,395.0745 C119.6294,399.8495 122.8054,405.9045 125.8704,411.7795 C140.0154,438.8855 157.9864,462.3335 182.3464,481.0845 C220.2294,509.4355 271.5114,529.7905 318.7494,515.9895 C420.3064,476.1075 440.2504,316.7215 405.2634,225.3185 L405.2634,225.3185 Z" id="ðŸŽ¨-Background" fill="#fff"></path>
        <path d="M193.3197,69.993 C259.6697,54.583 334.2097,75.263 380.2597,126.213 C383.4997,129.793 383.1497,134.453 380.2997,137.473 C381.6297,138.553 382.9297,139.663 384.2497,140.773 C385.6297,141.943 385.4297,144.293 384.2497,145.483 C383.0797,146.653 380.6497,146.893 379.5397,145.483 L377.89666,143.415 C377.0785,142.3818 376.2697,141.345 375.4897,140.283 C374.5397,140.633 373.6097,141.003 372.6797,141.363 C386.7497,150.713 398.4797,163.133 406.5197,178.083 C415.2197,194.253 420.7697,211.513 424.3797,229.473 C430.814788,261.510895 431.748121,294.369227 430.8875,326.947983 L430.8397,328.693 C429.7297,367.963 425.8997,407.883 409.3397,443.993 C396.0597,472.933 372.4597,499.543 342.8697,512.213 C325.8297,519.503 307.5097,522.613 288.9997,521.313 C279.2397,520.633 269.5097,519.093 260.0097,516.743 L257.72768,516.175922 C249.073411,514.008595 240.097808,511.495973 232.7097,506.543 C225.1297,501.453 230.2397,491.343 238.5997,492.573 C248.6697,494.063 258.2597,498.263 268.2497,500.443 C278.0197,502.583 287.9097,503.703 297.9197,503.413 C315.6297,502.913 331.7597,497.473 346.3997,487.593 C402.3697,449.803 409.1697,373.823 410.6297,312.423 C411.3397,282.423 410.2397,252.033 403.3397,222.723 C396.7097,194.543 385.2997,166.793 369.1497,142.723 C365.5897,144.053 362.0297,145.163 358.2397,145.513 C351.483922,149.574111 343.449823,149.681558 335.638112,149.683087 L334.5497,149.683 C326.4197,149.673 318.2897,149.193 310.1997,148.463 C281.5697,145.923 252.1097,139.483 223.3297,143.583 L222.154439,143.754801 C210.304091,145.537027 195.6197,149.277194 186.9197,157.803 C177.5197,167.003 183.8197,184.413 191.2597,189.943 C196.0697,193.523 197.5697,201.583 191.2597,204.833 C178.7997,211.263 148.6397,207.693 145.2497,211.253 C141.180135,215.508435 141.464894,221.993666 141.348131,227.516286 L141.3397,227.883 C140.9197,243.603 141.3097,259.273 142.6397,274.953 C143.9197,290.113 146.8297,305.303 147.4797,320.503 C147.6997,325.513 141.6497,327.033 138.3397,324.283 C137.6897,323.743 137.0197,323.233 136.3497,322.773 C130.3397,318.513 123.5097,316.713 116.1797,315.573 C115.7947,315.51175 115.493919,315.320344 115.277356,315.065773 L115.1897,314.953 L114.4097,315.593 C115.9297,317.483 117.2297,319.623 118.2597,322.023 C118.4697,322.503 118.0197,323.113 117.4897,322.793 C107.3497,316.763 96.3097,314.203 84.6397,316.643 C74.1397,318.833 64.6397,325.493 61.5597,336.153 C58.7297,345.963 60.8097,357.273 67.1597,365.343 C76.5497,377.303 91.7997,376.223 105.4797,376.773 C108.1597,376.883 111.1497,378.183 112.3997,380.743 C113.8697,383.763 113.7697,385.823 112.3997,388.833 C112.2097,389.263 111.9597,389.653 111.6697,390.003 C112.828033,390.961333 113.923867,392.009944 114.991922,393.079389 L118.563811,396.676586 C121.007251,399.144224 123.436843,401.633 125.7797,404.183 C132.6597,411.683 139.1297,419.663 145.2197,427.813 L145.782389,428.574101 C152.915703,438.332297 160.315085,452.424026 172.6797,455.503 C176.9197,456.563 180.8597,458.653 182.1197,463.243 C183.3797,467.833 180.4097,472.283 176.4197,474.203 C169.4997,477.533 160.7197,473.573 155.0097,469.373 C142.695734,460.302138 134.650669,445.503996 127.087345,432.476958 L125.016223,428.916691 C121.121106,422.195188 117.31595,415.39425 114.0697,408.333 C112.2197,404.303 110.2297,400.303 108.5097,396.213 C108.0097,395.023 107.5097,393.813 107.1197,392.573 C106.5697,392.693 106.0097,392.773 105.4797,392.803 C88.9697,393.883 69.9597,391.263 58.0297,378.733 C41.5797,361.463 39.6497,330.583 58.3397,314.103 C60.3097,312.363 62.5297,310.833 64.9297,309.523 C61.5897,303.873 59.3797,297.323 57.7497,291.173 C55.3697,282.193 54.0397,273.043 53.3797,263.783 C52.0497,244.893 54.2597,225.663 58.7997,207.313 C75.2597,140.803 125.7997,85.673 193.3197,69.993 Z M73.7498,345.9827 C70.4828,327.0341 108.399602,341.046263 116.668379,342.366621 L116.9098,342.4027 C126.394,343.7194 121.108093,360.355063 111.773883,355.399515 L111.4898,355.2427 C106.440467,352.349367 100.885889,350.274878 95.5903215,347.824069 L94.4598,347.2927 C90.2498,345.2727 76.3398,336.2027 74.8298,345.9827 C74.7498,346.5227 73.8398,346.5127 73.7498,345.9827 Z" id="ðŸ–-Ink" fill="#000"></path>
    </g><g transform="translate(531.000000, 366.000000)">
        <path d="M157.853264,261.089186 L159.986434,260.522285 C167.625732,258.441025 175.553661,255.136935 182.8485,259.665 C185.4825,261.3 185.8795,264.777 183.7975,267.027 C177.888371,273.411339 169.166228,272.172661 161.174911,272.236758 L160.7825,272.241 C152.7425,272.352 144.7625,271.951 136.8055,270.798 C135.7565,270.646 135.5495,268.903 136.5025,268.485 C143.4305,265.447824 150.556036,263.052862 157.853264,261.089186 L157.853264,261.089186 Z M170.814304,144.367155 C178.365682,148.9572 189.871664,159.660291 181.748119,171.039573 C172.185929,181.073062 158.418535,169.568982 151.634201,164.366134 C145.343449,160.333898 138.275437,170.704507 144.112,175.412823 C193.135736,211.708059 213.030606,145.567387 174.633685,138.970386 C170.406047,138.243425 168.835891,142.947174 170.814304,144.367155 Z M223.3163,84.0053 C235.4983,83.6323 235.5093,102.9853 223.3163,102.9333 C219.6763,102.9173 216.0363,102.9163 212.3963,102.9083 C214.5113,110.6193 213.3033,119.8143 209.4833,126.2913 C206.9633,130.5663 200.9323,131.3433 197.4093,127.8473 C191.3273,121.8113 190.1283,112.9843 192.2773,104.9803 L191.8353,103.9333 L191.8353,103.9333 C191.6913,103.5903 191.5883,103.2433 191.5043,102.8943 C179.738967,102.9043 167.973633,102.932522 156.2083,102.951707 L138.5603,102.9703 C127.1023,102.9743 115.6393,103.0673 104.1803,102.9603 C104.3213,103.1733 104.4623,103.3853 104.5773,103.6283 C105.2923,105.1333 105.5953,107.0333 105.8203,108.6603 C106.2043,111.4523 106.1583,114.4593 105.7183,117.2403 C105.3973,119.2723 104.8073,121.6923 103.6763,123.6073 L103.6693,123.6473 L103.6693,123.6473 C103.1363,125.9193 102.4633,128.0943 100.7063,129.7333 C100.1783,130.2243 99.6633,130.5743 99.1193,130.8223 C98.0923,131.8973 96.7703,132.6083 95.0333,132.630932 C94.1113,132.6413 93.1003,132.3723 92.1203,131.9903 C90.6133,132.1163 89.0573,131.4343 87.7243,130.8303 C86.6553,130.3453 85.6743,129.7013 84.8833,128.8613 C84.5123,128.7733 84.1383,128.6283 83.7643,128.3973 C81.4723,126.9873 80.5963,124.1613 80.4773,121.6093 C80.4693,121.4543 80.4753,121.2913 80.4703,121.1343 C80.3853,120.7883 80.3093,120.4403 80.2513,120.0903 C79.4893,115.5553 80.4153,110.4483 81.3853,106.0413 C81.6293,104.9383 81.8303,103.6573 82.1293,102.4183 C79.8423,102.3293 77.5573,102.2413 75.2703,102.1473 C69.5423,101.9133 62.5513,102.6803 57.2523,100.2593 C56.8663,100.0843 56.9703,99.5703 57.2523,99.3693 C62.1445222,95.8722167 69.7457336,95.3062483 75.6375743,94.1545348 L76.1383,94.0543 C83.1643,92.6133 90.1863,91.4013 97.2833,90.3663 C110.9443,88.3743 124.7803,87.3023 138.5603,86.5303 C166.7733,84.9503 195.0743,84.8683 223.3163,84.0053 Z" id="ðŸ–-Ink" fill="#000000"></path>
    </g><g transform="translate(494.999934, 517.999659)"></g><g transform="translate(419.000000, 421.000000)">
        <path d="M372.3111,95.4577 C360.1701,108.0027 339.9021,111.6027 323.7491,104.8747 C282.2731,87.5457 302.5741,33.4957 334.5611,18.9807 C338.5571,17.9847 343.8941,15.6217 348.7611,15.0857 C349.2011,14.8697 350.1591,15.4947 351.3201,14.9037 C386.5911,18.8417 394.6231,73.5937 372.3111,95.4577 M238.5331,98.6687 C224.9161,116.7297 199.6001,122.3017 178.9161,113.9057 C138.0541,97.8137 152.5471,49.8847 180.5041,31.0947 C239.5611,8.9037 263.9481,65.3677 238.5331,98.6687 M149.9531,58.6507 C149.9151,58.6327 149.8771,58.6237 149.8381,58.6057 C150.0541,58.5107 150.2701,58.4157 150.4851,58.3187 C150.4151,58.5017 150.3391,58.6827 150.2711,58.8657 C150.1651,58.7927 150.0721,58.7077 149.9531,58.6507 M400.4231,39.1277 C397.0891,39.1347 392.2731,39.6827 389.5131,41.9957 C382.7071,19.0427 357.5851,-2.2003 335.7371,13.2897 C318.5321,18.8227 305.7651,31.0937 298.5091,47.4077 C285.4261,39.6257 264.8541,42.9487 253.5091,53.2397 C246.0791,28.6887 227.7931,20.0917 206.0281,18.8227 C182.2721,14.9317 158.5941,38.0027 151.2061,56.5107 C145.0631,55.8117 135.8841,53.8567 130.1051,57.6477 C92.5981,47.8117 27.0231,42.3887 19.3981,47.8537 C13.9641,49.9387 10.9821,62.7647 18.5721,63.4567 C25.1861,62.5177 17.8001,54.0587 24.4671,53.1357 C59.9901,50.9337 94.4751,58.0877 129.6221,61.0897 C132.7601,65.3107 142.8991,66.7227 148.3081,65.0267 C139.7891,96.4227 158.1791,117.7827 185.7341,124.1807 C228.4011,133.9817 265.5221,95.8137 254.3651,56.1137 C267.2901,49.6837 282.1571,49.9597 296.2371,53.3467 C272.7091,139.9367 412.1661,136.0517 390.3851,44.9627 C404.8801,52.1727 408.0281,40.5827 400.4231,39.1277" id="ðŸ–-Ink" fill="#000000"></path>
    </g></g></svg>