<svg id="avatar" viewBox="0 0 1136 1533" version="1.1" overflow="hidden" xmlns="http://www.w3.org/2000/svg" class="size-full max-h-[320px] md:max-h-[520px]"><g stroke="none" stroke-width="1" fill="none" fill-rule="evenodd"><g transform="translate(147.000000, 639.000000)">
        <path d="M659.9332,217.9773 C651.2492,214.8813 642.8792,211.3053 635.2532,206.0453 C613.2702,189.6823 598.9362,165.0573 585.3922,141.7263 C566.3142,107.7933 552.7232,71.6353 543.3282,33.9153 C539.2912,17.7093 537.9202,-1.0807 528.7482,-15.4487 C507.9562,-45.5337 446.9872,-41.6357 414.6122,-36.3547 C392.9322,-32.5187 388.4512,-8.2567 383.5272,9.6963 C379.4272,24.6133 376.7432,39.6993 374.4902,54.9873 C369.1302,58.5113 363.0792,61.3733 357.3112,63.8663 C294.4522,83.1413 283.4042,118.8753 259.3952,174.0733 C218.8442,254.3023 108.8092,285.7153 92.1882,380.6643 C81.4792,443.3493 111.9322,502.3223 143.3292,554.4343 C172.5692,611.3553 213.3902,638.6753 278.3992,625.2273 C339.3742,611.5493 397.9742,588.6683 457.8762,570.9873 C486.8892,563.8543 515.8562,545.3003 546.3752,551.7693 C609.2602,565.8923 673.8712,572.5323 738.3172,570.6993 C828.8012,574.3583 828.7872,487.5133 819.5002,420.2603 C812.9952,315.5993 760.2052,248.3953 659.9332,217.9773 L659.9332,217.9773 Z" id="ðŸŽ¨-Background" fill="#FFFFFF"></path>
        <path d="M665.9826,369.422 C673.5436,374.422 679.9026,382.003 685.0076,389.981 C663.6956,387.764 642.4206,385.208 621.1926,382.298 C623.9716,380.522 626.7766,378.785 629.6456,377.145 C640.1126,371.247 654.2946,361.694 665.9826,369.422 Z M311.8976,432.42 C307.9926,430.891 306.4816,424.937 304.9596,421.524 C300.1876,410.821 295.8326,399.936 291.3016,389.129 C308.5056,384.225 325.2356,378.784 343.0576,376.17 C362.2206,373.362 381.6666,372.682 401.0066,373.313 C440.1806,374.591 478.9906,380.993 517.5046,387.858 C555.9736,394.715 594.4406,401.303 633.1786,406.473 C671.1316,411.538 709.2046,415.245 747.3486,418.499 C754.7596,419.132 767.1166,421.797 773.0766,415.965 C777.7956,411.346 777.9486,402.827 772.0436,399.072 C768.3656,396.731 763.0366,396.697 758.8346,396.157 C753.5426,395.476 748.2296,395.023 742.9056,394.67 C740.7366,394.527 738.5676,394.395 736.3976,394.263 C753.8146,387.696 772.0056,384.115 790.8876,385.113 C791.9556,391.6 796.7666,398.274 799.3996,403.624 C803.9976,412.964 807.5816,422.417 809.9346,432.573 C814.8526,453.801 815.0666,475.833 813.6776,497.484 C812.4016,515.536 809.6606,535.504 795.5006,548.289 C784.7796,557.969 769.6536,561.553 755.6206,562.68 C739.3106,563.99 722.7486,562.591 706.5756,560.405 C683.8916,557.338 661.1016,553.282 638.8636,547.846 C595.7926,537.318 554.5086,520.566 516.4196,497.854 C497.8446,486.779 480.1206,474.319 461.2906,463.665 C442.1036,452.807 421.6876,444.384 400.2496,439.154 C376.2586,433.301 351.1786,430.803 326.5206,432.247 C322.2416,432.497 316.0596,434.049 311.8976,432.42 Z M284.0956,421.552 C286.6166,429.733 288.5456,439.074 293.9266,445.948 C299.2566,452.76 307.2976,455.164 315.6276,455.77 C325.6716,456.499 335.8336,456.032 345.8996,456.406 C366.5446,457.173 386.9066,460.526 406.6426,466.677 C425.0346,472.41 442.1076,481.352 458.5536,491.272 C473.7616,500.446 488.5236,510.295 503.7366,519.441 C499.6876,521.297 495.6846,523.305 491.6596,525.053 C483.2176,528.719 474.7236,532.256 466.1916,535.705 C449.3666,542.505 432.4706,549.14 415.4016,555.304 C380.9836,567.733 345.9996,578.592 310.5946,587.842 C293.7086,592.254 276.5826,597.407 259.0396,598.141 C243.4836,598.791 229.0746,594.394 216.5286,585.145 C190.5066,565.961 169.8036,538.271 153.0676,510.958 C143.1246,494.731 134.4476,477.681 127.2706,460.052 C123.6406,451.137 120.3486,442.085 117.3856,432.927 C115.9956,428.627 114.6776,424.303 113.4296,419.959 C112.8806,418.049 112.3546,416.133 111.8336,414.215 C138.4426,406.095 165.3676,398.765 192.9246,394.696 C207.6376,392.523 222.5466,391.423 237.4206,391.583 C244.8036,391.662 252.1826,392.061 259.5266,392.823 C263.4796,393.233 267.4166,393.761 271.3366,394.415 C272.9566,394.684 274.6216,395.082 276.2916,395.375 C278.8426,404.116 281.4146,412.85 284.0956,421.552 Z M834.1376,386.798 C835.5716,383.897 836.1766,381.043 836.6906,377.885 C837.0826,375.476 838.1226,372.085 837.2116,368.957 C836.1916,365.454 833.4126,362.321 831.4176,359.333 C829.2146,356.031 827.0136,352.727 824.8156,349.421 C820.4186,342.81 816.0316,336.193 811.6516,329.571 C793.7646,302.53 775.9996,275.411 758.2066,248.309 C742.4166,224.258 726.8926,199.991 710.6216,176.263 C696.7086,155.973 681.5436,136.018 662.4996,120.238 C638.4206,100.286 609.7486,90.887 579.7996,83.553 C576.5286,80.158 572.1596,78.304 567.4896,78.68 C560.8916,71.197 555.6476,65.97 553.2706,56.454 C552.1316,51.896 552.4886,39.089 548.0496,36.392 C542.7766,33.188 540.022734,37.4286356 538.5686,42.208 C533.7036,58.198 539.2876,79.696 552.1376,95.713 C546.7236,114.424 539.5456,141.016 526.7406,156.006 C513.0286,172.057 494.0656,177.053 473.6056,177.382 C434.5876,178.01 395.6106,163.509 365.8496,138.377 C356.8036,130.739 348.4026,122.208 340.8016,113.135 C335.1006,106.328 328.3566,95.823 323.8966,87.883 C323.8966,84.7887764 320.243294,81.553 357.4366,79.053 C394.629906,76.553 397.4506,25.626 398.2776,18.695 C398.9496,13.067 401.8076,4.331 397.8416,-0.258 C396.1586,-2.207 392.7046,-2.521 390.5706,-1.197 C386.5466,1.302 385.2246,7.692 383.9596,12.031 C382.1876,18.11 376.3946,55.837 365.4176,60.205 C360.2786,62.25 354.3846,62.288 348.9486,62.666 C342.2356,63.135 335.5086,63.478 328.8226,64.259 C326.3566,64.547 323.6666,65.345 321.2336,65.368 C319.6506,65.383 318.0176,64.614 316.4876,64.074 C311.3236,62.249 306.1636,63.618 300.8436,64.333 C253.8076,70.654 205.3766,85.081 165.2566,111.04 C129.8946,133.92 104.9816,166.825 88.5426,205.297 C71.7696,244.559 62.1556,287.016 54.0986,328.812 C51.3996,342.816 49.0426,356.885 47.0176,371.002 C45.0606,384.643 42.6126,398.589 42.0266,412.368 C41.7946,417.82 43.0976,422.885 45.1026,427.865 C47.3606,433.47 52.6976,435.68 57.8166,438.297 C69.0536,444.045 80.9076,448.503 93.1206,451.66 C100.5816,465.233 106.8606,479.336 111.9066,493.973 C110.0346,497.682 109.9956,503.221 109.6356,506.826 C108.7426,515.803 108.3606,524.827 108.2806,533.845 C108.1196,551.92 109.2066,569.977 110.0586,588.024 C110.9226,606.328 113.7946,678.547 114.2626,687.366 C114.6266,694.217 114.1366,703.8 117.7456,709.882 C123.2916,719.231 136.9796,718.916 143.3196,711.336 C300.8436,745.199801 596.9443,735 716.1986,717.962 C731.714787,715.745184 726.8426,718.204 730.7886,714.284 C733.7496,711.34 736.2696,706.299 737.0886,702.248 C738.1826,696.84 736.4166,691.946 733.3206,687.57 C730.0656,682.97 729.4726,675.52 728.2636,670.05 C725.4046,657.119 723.9836,600.329 722.6476,594.036 C722.2316,592.075 721.8286,590.002 721.3426,587.928 C743.2176,590 766.0106,590 786.8216,582.684 C798.6226,578.535 809.6286,572.018 818.1006,562.713 C828.3586,551.446 834.0656,537.262 837.0006,522.457 C840.7876,503.366 841.5916,483.591 840.8476,464.184 C839.8136,441.248 836.0096,417.989 826.5676,396.93 C829.6746,394.045 832.2786,390.564 834.1376,386.798 Z" id="ðŸ–-Ink" fill="#000000"></path>
    </g><g fill="#333" transform="translate(372.000000, 180.000000)">
        <path d="M242.041161,75.2596156 C298.821805,75.2596156 357.551668,119.271611 378.365264,147.356837 C395.864342,170.969555 405.286153,277.745152 405.286153,349.905008 C405.286153,364.996849 413.614596,393.445968 411.184129,407.881894 C402.277902,460.781042 363.475367,505.14576 286.676873,505.14576 C209.87838,505.14576 154.814935,474.704319 97.7325351,392.972519 C70.0358893,392.972519 56.6129701,371.732631 56.4152532,338.213866 C56.2871511,315.868022 65.1995229,300.630067 83.1523686,292.5 C76.7512999,204.313833 81.6113554,148.741029 97.7325351,125.781589 C121.914305,91.3424282 185.260516,75.2596156 242.041161,75.2596156 Z" id="ðŸŽ¨-Background" fill="#fff"></path>
        <path d="M218.1465,56.5559 C253.9965,52.9259 289.1265,55.9759 324.4565,62.2869 C327.1565,62.7759 328.6865,64.5469 329.2555,66.6759 C345.8965,67.4359 362.5565,68.6569 379.1755,69.5669 C385.2065,69.8969 388.6255,75.8559 385.8755,81.2369 C385.3265,82.3059 384.7555,83.3459 384.1755,84.3859 L384.90416,84.145677 C389.903636,82.5418162 395.304128,81.751086 400.1755,84.2969 C406.3755,87.5369 408.8065,94.6859 407.4365,101.2659 C407.0855,102.9459 406.4965,104.5559 405.8265,106.1269 C407.1865,106.0369 408.5565,106.0669 409.9165,106.2469 C417.1565,107.2069 422.5365,112.7569 422.9165,120.1469 C423.4765,131.3059 416.2865,142.6269 407.8165,150.6159 C409.0455,153.1469 409.5165,156.1269 409.0055,159.1469 C407.9855,165.1169 403.5875,168.6919 398.4895,171.0239 C400.6155,177.7749 401.6205,184.8329 401.0275,192.0459 C400.8295,194.4539 398.7235,196.4429 396.5005,196.9309 C404.7865,219.7449 408.9805,244.2389 411.9965,268.1059 C414.1465,285.0869 415.2065,302.1669 415.3355,319.2759 C415.398611,327.000344 415.271302,334.73348 414.947253,342.459154 L414.8165,345.3559 C414.4165,353.7069 414.3965,362.4759 412.8965,370.7369 C418.0165,379.4459 420.0765,390.2569 420.9465,400.0159 C422.0265,412.0959 420.3165,424.5559 416.5055,436.0469 C402.1255,479.4659 358.7265,506.8659 315.1355,513.9869 C274.7865,520.5769 228.0965,511.7069 204.5165,475.0559 C204.1465,474.4759 204.9365,473.9969 205.3965,474.3769 C222.2665,488.0959 241.8355,494.2159 263.0965,497.1959 C299.8565,502.3369 341.1755,493.6159 370.6755,470.4969 C384.8355,459.3969 395.0455,443.2369 399.5365,425.8459 C401.8265,416.9569 402.6165,407.6859 401.7155,398.5369 C400.7955,389.2569 396.6865,381.3369 394.0965,372.5669 C393.2265,369.6059 394.1465,366.8559 395.9565,364.8969 C396.4655,357.7759 397.6665,350.5959 398.1255,343.4969 C398.6355,335.4259 398.9465,327.3559 399.0565,319.2759 C399.2665,302.5159 398.5665,285.7259 397.1565,269.0369 C394.5765,238.4759 387.7265,208.6569 383.7065,178.3559 C382.217833,179.690867 380.0844,180.239031 377.848178,179.072708 L377.6165,178.9459 L376.3965,178.2469 C376.3265,178.2469 376.2465,178.2569 376.1755,178.2659 C367.8265,179.0769 359.1665,177.9169 351.1665,175.4259 C342.7955,172.8269 335.0265,168.8269 328.0855,163.4969 C326.7665,170.1859 326.2155,176.9459 326.2065,183.7659 C326.1965,188.0259 321.6865,190.2369 318.1065,188.4169 C302.2365,180.3559 287.0765,171.0669 272.6865,160.6269 C271.0055,169.2369 269.3265,177.8459 267.6355,186.4659 C266.9865,189.7869 262.7555,191.1269 260.0455,189.5469 C249.2665,183.2759 239.9565,175.0669 232.3765,165.3059 C230.863167,168.1999 229.345389,171.093456 227.817241,173.980641 L225.5165,178.3059 C223.2465,182.5559 220.2065,187.2569 215.2365,188.6159 C209.9765,190.0559 205.5855,186.6469 203.8165,181.8859 C203.2765,180.4069 202.7765,178.8859 202.3165,177.3559 C197.8355,187.5869 192.7765,197.5869 187.0565,207.1269 C178.4765,221.4359 168.1755,234.1859 157.9065,247.2659 C154.7865,251.2369 149.4465,247.4459 149.0165,243.5869 C148.7665,241.3169 148.5565,239.0369 148.3755,236.7659 C142.3915,248.8419 136.1475,260.8049 129.3445,272.4209 L130.3185,276.2379 L130.3185,276.2379 C133.1255,287.5159 135.4565,298.8739 137.9905,310.2119 C138.8085,313.8699 136.8645,319.0999 132.5905,319.7229 C127.4845,320.4669 122.6535,323.0759 117.4235,321.2809 C111.7205,319.3229 110.5935,314.3939 107.9015,309.7219 C107.3645,308.7909 106.7395,307.9359 106.0675,307.1239 L105.8965,307.3459 L105.8965,307.3459 C105.4765,307.8969 104.4765,307.2969 104.7265,306.6669 L105.0195,305.9389 L105.0195,305.9389 C102.7065,303.4839 99.9385,301.4359 97.3935,299.2329 C91.3455,298.2139 84.5425,299.3299 80.3755,301.7869 C70.8855,307.3859 66.5265,318.9259 66.4365,329.5369 C66.3265,341.9569 70.1755,355.9169 76.6755,366.5369 C79.5365,371.2069 83.4565,375.4259 88.6355,377.4969 C93.7765,379.5559 99.3465,378.9169 104.5765,380.8559 C108.0365,382.1469 110.1665,385.9869 108.0765,389.4659 C107.9365,389.7069 107.7765,389.9259 107.6255,390.1569 L109.181019,392.221381 C110.250944,393.651456 111.3665,395.182567 112.4065,396.7759 C115.0665,399.8369 117.8665,402.7869 120.5765,405.7969 C125.5855,411.3459 130.4465,417.0469 135.3755,422.6759 C140.0265,427.9869 144.9465,432.9759 150.0165,437.8859 C154.8065,442.5369 160.7865,446.4459 165.1865,451.4069 C169.4655,456.2469 170.6265,464.6959 163.5855,467.4969 C155.796208,470.60315 148.900566,463.323034 143.657071,458.469499 L143.4365,458.2659 C133.8245,449.4209 125.1445,439.3129 118.2515,428.1839 C111.4235,432.8319 101.5475,433.2759 94.7485,428.6289 C91.1705,426.1839 88.4255,422.0749 87.0915,417.6049 C85.8335,417.8869 84.5765,418.0519 83.3505,418.0329 C82.7195,418.3989 82.0865,418.7549 81.4465,419.0869 C76.3755,421.7259 70.1465,420.5469 67.8265,414.9359 C65.7138913,409.84227 67.8908578,404.057449 69.7937681,399.149752 L70.1865,398.1359 C71.2665,395.3369 72.4565,392.2869 73.9365,389.4169 C69.8165,386.3169 66.2955,382.4659 63.3165,378.0869 C53.3065,363.3369 48.3065,341.7659 50.5165,324.1669 C51.8465,313.5469 56.8355,302.5469 65.0055,295.3859 L64.7065,294.6059 L64.7065,294.6059 C62.4165,288.7969 60.3355,282.9659 58.9865,276.8269 C57.4065,269.6469 56.6355,262.2069 55.9365,254.8969 C54.4565,239.4569 54.8565,223.6669 56.8265,208.2869 C60.5265,179.3369 69.9065,150.9169 86.5565,126.8269 C81.8355,121.1759 78.0965,114.5259 80.0455,106.8769 C80.9365,103.3659 82.9655,100.0369 86.0265,98.0259 C87.7155,96.9169 89.7265,96.7469 91.4165,95.8269 L91.9246563,95.5471104 C92.6669844,95.1139329 92.0991765,95.1598412 91.6565,93.1469 C89.9065,85.1059 91.3565,77.3369 100.2065,74.6669 C108.5365,72.1569 116.4165,77.4869 121.3465,83.8369 C134.2465,74.6859 151.2465,69.8969 166.1965,65.8269 C183.1965,61.2159 200.6355,58.3369 218.1465,56.5559 Z M78.8069,326.2562 C78.7459,319.7062 84.9559,315.6662 91.0669,316.7372 C95.1702571,317.451271 98.5933031,319.90018 101.807624,322.431371 L103.374768,323.671291 C107.288878,326.74416 111.782567,330.056933 114.1159,334.4072 C117.5359,340.8272 110.3069,349.4662 103.5569,344.9662 C98.9265667,341.8632 95.95861,336.891311 92.921411,332.272642 L92.6069,331.7962 C91.2269,329.7262 90.0169,327.5262 88.1259,325.8662 L87.7174162,325.508484 C87.0959496,324.978762 86.4285364,324.495291 85.6259,324.2662 C84.0775129,323.821039 81.2095629,324.444452 80.526766,326.287794 L80.4659,326.4762 C80.2159,327.4072 78.8169,327.2062 78.8069,326.2562 Z" id="ðŸ–-Ink" fill="#000"></path>
    </g><g transform="translate(531.000000, 366.000000)">
        <path d="M157.853264,261.089186 L159.986434,260.522285 C167.625732,258.441025 175.553661,255.136935 182.8485,259.665 C185.4825,261.3 185.8795,264.777 183.7975,267.027 C177.888371,273.411339 169.166228,272.172661 161.174911,272.236758 L160.7825,272.241 C152.7425,272.352 144.7625,271.951 136.8055,270.798 C135.7565,270.646 135.5495,268.903 136.5025,268.485 C143.4305,265.447824 150.556036,263.052862 157.853264,261.089186 L157.853264,261.089186 Z M170.814304,144.367155 C178.365682,148.9572 189.871664,159.660291 181.748119,171.039573 C172.185929,181.073062 158.418535,169.568982 151.634201,164.366134 C145.343449,160.333898 138.275437,170.704507 144.112,175.412823 C193.135736,211.708059 213.030606,145.567387 174.633685,138.970386 C170.406047,138.243425 168.835891,142.947174 170.814304,144.367155 Z M223.3163,84.0053 C235.4983,83.6323 235.5093,102.9853 223.3163,102.9333 C219.6763,102.9173 216.0363,102.9163 212.3963,102.9083 C214.5113,110.6193 213.3033,119.8143 209.4833,126.2913 C206.9633,130.5663 200.9323,131.3433 197.4093,127.8473 C191.3273,121.8113 190.1283,112.9843 192.2773,104.9803 L191.8353,103.9333 L191.8353,103.9333 C191.6913,103.5903 191.5883,103.2433 191.5043,102.8943 C179.738967,102.9043 167.973633,102.932522 156.2083,102.951707 L138.5603,102.9703 C127.1023,102.9743 115.6393,103.0673 104.1803,102.9603 C104.3213,103.1733 104.4623,103.3853 104.5773,103.6283 C105.2923,105.1333 105.5953,107.0333 105.8203,108.6603 C106.2043,111.4523 106.1583,114.4593 105.7183,117.2403 C105.3973,119.2723 104.8073,121.6923 103.6763,123.6073 L103.6693,123.6473 L103.6693,123.6473 C103.1363,125.9193 102.4633,128.0943 100.7063,129.7333 C100.1783,130.2243 99.6633,130.5743 99.1193,130.8223 C98.0923,131.8973 96.7703,132.6083 95.0333,132.630932 C94.1113,132.6413 93.1003,132.3723 92.1203,131.9903 C90.6133,132.1163 89.0573,131.4343 87.7243,130.8303 C86.6553,130.3453 85.6743,129.7013 84.8833,128.8613 C84.5123,128.7733 84.1383,128.6283 83.7643,128.3973 C81.4723,126.9873 80.5963,124.1613 80.4773,121.6093 C80.4693,121.4543 80.4753,121.2913 80.4703,121.1343 C80.3853,120.7883 80.3093,120.4403 80.2513,120.0903 C79.4893,115.5553 80.4153,110.4483 81.3853,106.0413 C81.6293,104.9383 81.8303,103.6573 82.1293,102.4183 C79.8423,102.3293 77.5573,102.2413 75.2703,102.1473 C69.5423,101.9133 62.5513,102.6803 57.2523,100.2593 C56.8663,100.0843 56.9703,99.5703 57.2523,99.3693 C62.1445222,95.8722167 69.7457336,95.3062483 75.6375743,94.1545348 L76.1383,94.0543 C83.1643,92.6133 90.1863,91.4013 97.2833,90.3663 C110.9443,88.3743 124.7803,87.3023 138.5603,86.5303 C166.7733,84.9503 195.0743,84.8683 223.3163,84.0053 Z" id="ðŸ–-Ink" fill="#000000"></path>
    </g><g transform="translate(494.999934, 517.999659)"></g><g transform="translate(419.000000, 421.000000)">
        <path d="M372.3111,95.4577 C360.1701,108.0027 339.9021,111.6027 323.7491,104.8747 C282.2731,87.5457 302.5741,33.4957 334.5611,18.9807 C338.5571,17.9847 343.8941,15.6217 348.7611,15.0857 C349.2011,14.8697 350.1591,15.4947 351.3201,14.9037 C386.5911,18.8417 394.6231,73.5937 372.3111,95.4577 M238.5331,98.6687 C224.9161,116.7297 199.6001,122.3017 178.9161,113.9057 C138.0541,97.8137 152.5471,49.8847 180.5041,31.0947 C239.5611,8.9037 263.9481,65.3677 238.5331,98.6687 M149.9531,58.6507 C149.9151,58.6327 149.8771,58.6237 149.8381,58.6057 C150.0541,58.5107 150.2701,58.4157 150.4851,58.3187 C150.4151,58.5017 150.3391,58.6827 150.2711,58.8657 C150.1651,58.7927 150.0721,58.7077 149.9531,58.6507 M400.4231,39.1277 C397.0891,39.1347 392.2731,39.6827 389.5131,41.9957 C382.7071,19.0427 357.5851,-2.2003 335.7371,13.2897 C318.5321,18.8227 305.7651,31.0937 298.5091,47.4077 C285.4261,39.6257 264.8541,42.9487 253.5091,53.2397 C246.0791,28.6887 227.7931,20.0917 206.0281,18.8227 C182.2721,14.9317 158.5941,38.0027 151.2061,56.5107 C145.0631,55.8117 135.8841,53.8567 130.1051,57.6477 C92.5981,47.8117 27.0231,42.3887 19.3981,47.8537 C13.9641,49.9387 10.9821,62.7647 18.5721,63.4567 C25.1861,62.5177 17.8001,54.0587 24.4671,53.1357 C59.9901,50.9337 94.4751,58.0877 129.6221,61.0897 C132.7601,65.3107 142.8991,66.7227 148.3081,65.0267 C139.7891,96.4227 158.1791,117.7827 185.7341,124.1807 C228.4011,133.9817 265.5221,95.8137 254.3651,56.1137 C267.2901,49.6837 282.1571,49.9597 296.2371,53.3467 C272.7091,139.9367 412.1661,136.0517 390.3851,44.9627 C404.8801,52.1727 408.0281,40.5827 400.4231,39.1277" id="ðŸ–-Ink" fill="#000000"></path>
    </g></g></svg>