<svg id="avatar" viewBox="0 0 1136 1533" version="1.1" overflow="hidden" xmlns="http://www.w3.org/2000/svg" class="size-full max-h-[320px] md:max-h-[520px]"><g stroke="none" stroke-width="1" fill="none" fill-rule="evenodd"><g transform="translate(147.000000, 639.000000)">
        <path d="M659.9332,217.9773 C651.2492,214.8813 642.8792,211.3053 635.2532,206.0453 C613.2702,189.6823 598.9362,165.0573 585.3922,141.7263 C566.3142,107.7933 552.7232,71.6353 543.3282,33.9153 C539.2912,17.7093 537.9202,-1.0807 528.7482,-15.4487 C507.9562,-45.5337 446.9872,-41.6357 414.6122,-36.3547 C392.9322,-32.5187 388.4512,-8.2567 383.5272,9.6963 C379.4272,24.6133 376.7432,39.6993 374.4902,54.9873 C369.1302,58.5113 363.0792,61.3733 357.3112,63.8663 C294.4522,83.1413 283.4042,118.8753 259.3952,174.0733 C218.8442,254.3023 108.8092,285.7153 92.1882,380.6643 C81.4792,443.3493 111.9322,502.3223 143.3292,554.4343 C172.5692,611.3553 213.3902,638.6753 278.3992,625.2273 C339.3742,611.5493 397.9742,588.6683 457.8762,570.9873 C486.8892,563.8543 515.8562,545.3003 546.3752,551.7693 C609.2602,565.8923 673.8712,572.5323 738.3172,570.6993 C828.8012,574.3583 828.7872,487.5133 819.5002,420.2603 C812.9952,315.5993 760.2052,248.3953 659.9332,217.9773 L659.9332,217.9773 Z" id="ðŸŽ¨-Background" fill="#FFFFFF"></path>
        <path d="M665.9826,369.422 C673.5436,374.422 679.9026,382.003 685.0076,389.981 C663.6956,387.764 642.4206,385.208 621.1926,382.298 C623.9716,380.522 626.7766,378.785 629.6456,377.145 C640.1126,371.247 654.2946,361.694 665.9826,369.422 Z M311.8976,432.42 C307.9926,430.891 306.4816,424.937 304.9596,421.524 C300.1876,410.821 295.8326,399.936 291.3016,389.129 C308.5056,384.225 325.2356,378.784 343.0576,376.17 C362.2206,373.362 381.6666,372.682 401.0066,373.313 C440.1806,374.591 478.9906,380.993 517.5046,387.858 C555.9736,394.715 594.4406,401.303 633.1786,406.473 C671.1316,411.538 709.2046,415.245 747.3486,418.499 C754.7596,419.132 767.1166,421.797 773.0766,415.965 C777.7956,411.346 777.9486,402.827 772.0436,399.072 C768.3656,396.731 763.0366,396.697 758.8346,396.157 C753.5426,395.476 748.2296,395.023 742.9056,394.67 C740.7366,394.527 738.5676,394.395 736.3976,394.263 C753.8146,387.696 772.0056,384.115 790.8876,385.113 C791.9556,391.6 796.7666,398.274 799.3996,403.624 C803.9976,412.964 807.5816,422.417 809.9346,432.573 C814.8526,453.801 815.0666,475.833 813.6776,497.484 C812.4016,515.536 809.6606,535.504 795.5006,548.289 C784.7796,557.969 769.6536,561.553 755.6206,562.68 C739.3106,563.99 722.7486,562.591 706.5756,560.405 C683.8916,557.338 661.1016,553.282 638.8636,547.846 C595.7926,537.318 554.5086,520.566 516.4196,497.854 C497.8446,486.779 480.1206,474.319 461.2906,463.665 C442.1036,452.807 421.6876,444.384 400.2496,439.154 C376.2586,433.301 351.1786,430.803 326.5206,432.247 C322.2416,432.497 316.0596,434.049 311.8976,432.42 Z M284.0956,421.552 C286.6166,429.733 288.5456,439.074 293.9266,445.948 C299.2566,452.76 307.2976,455.164 315.6276,455.77 C325.6716,456.499 335.8336,456.032 345.8996,456.406 C366.5446,457.173 386.9066,460.526 406.6426,466.677 C425.0346,472.41 442.1076,481.352 458.5536,491.272 C473.7616,500.446 488.5236,510.295 503.7366,519.441 C499.6876,521.297 495.6846,523.305 491.6596,525.053 C483.2176,528.719 474.7236,532.256 466.1916,535.705 C449.3666,542.505 432.4706,549.14 415.4016,555.304 C380.9836,567.733 345.9996,578.592 310.5946,587.842 C293.7086,592.254 276.5826,597.407 259.0396,598.141 C243.4836,598.791 229.0746,594.394 216.5286,585.145 C190.5066,565.961 169.8036,538.271 153.0676,510.958 C143.1246,494.731 134.4476,477.681 127.2706,460.052 C123.6406,451.137 120.3486,442.085 117.3856,432.927 C115.9956,428.627 114.6776,424.303 113.4296,419.959 C112.8806,418.049 112.3546,416.133 111.8336,414.215 C138.4426,406.095 165.3676,398.765 192.9246,394.696 C207.6376,392.523 222.5466,391.423 237.4206,391.583 C244.8036,391.662 252.1826,392.061 259.5266,392.823 C263.4796,393.233 267.4166,393.761 271.3366,394.415 C272.9566,394.684 274.6216,395.082 276.2916,395.375 C278.8426,404.116 281.4146,412.85 284.0956,421.552 Z M834.1376,386.798 C835.5716,383.897 836.1766,381.043 836.6906,377.885 C837.0826,375.476 838.1226,372.085 837.2116,368.957 C836.1916,365.454 833.4126,362.321 831.4176,359.333 C829.2146,356.031 827.0136,352.727 824.8156,349.421 C820.4186,342.81 816.0316,336.193 811.6516,329.571 C793.7646,302.53 775.9996,275.411 758.2066,248.309 C742.4166,224.258 726.8926,199.991 710.6216,176.263 C696.7086,155.973 681.5436,136.018 662.4996,120.238 C638.4206,100.286 609.7486,90.887 579.7996,83.553 C576.5286,80.158 572.1596,78.304 567.4896,78.68 C560.8916,71.197 555.6476,65.97 553.2706,56.454 C552.1316,51.896 552.4886,39.089 548.0496,36.392 C542.7766,33.188 540.022734,37.4286356 538.5686,42.208 C533.7036,58.198 539.2876,79.696 552.1376,95.713 C546.7236,114.424 539.5456,141.016 526.7406,156.006 C513.0286,172.057 494.0656,177.053 473.6056,177.382 C434.5876,178.01 395.6106,163.509 365.8496,138.377 C356.8036,130.739 348.4026,122.208 340.8016,113.135 C335.1006,106.328 328.3566,95.823 323.8966,87.883 C323.8966,84.7887764 320.243294,81.553 357.4366,79.053 C394.629906,76.553 397.4506,25.626 398.2776,18.695 C398.9496,13.067 401.8076,4.331 397.8416,-0.258 C396.1586,-2.207 392.7046,-2.521 390.5706,-1.197 C386.5466,1.302 385.2246,7.692 383.9596,12.031 C382.1876,18.11 376.3946,55.837 365.4176,60.205 C360.2786,62.25 354.3846,62.288 348.9486,62.666 C342.2356,63.135 335.5086,63.478 328.8226,64.259 C326.3566,64.547 323.6666,65.345 321.2336,65.368 C319.6506,65.383 318.0176,64.614 316.4876,64.074 C311.3236,62.249 306.1636,63.618 300.8436,64.333 C253.8076,70.654 205.3766,85.081 165.2566,111.04 C129.8946,133.92 104.9816,166.825 88.5426,205.297 C71.7696,244.559 62.1556,287.016 54.0986,328.812 C51.3996,342.816 49.0426,356.885 47.0176,371.002 C45.0606,384.643 42.6126,398.589 42.0266,412.368 C41.7946,417.82 43.0976,422.885 45.1026,427.865 C47.3606,433.47 52.6976,435.68 57.8166,438.297 C69.0536,444.045 80.9076,448.503 93.1206,451.66 C100.5816,465.233 106.8606,479.336 111.9066,493.973 C110.0346,497.682 109.9956,503.221 109.6356,506.826 C108.7426,515.803 108.3606,524.827 108.2806,533.845 C108.1196,551.92 109.2066,569.977 110.0586,588.024 C110.9226,606.328 113.7946,678.547 114.2626,687.366 C114.6266,694.217 114.1366,703.8 117.7456,709.882 C123.2916,719.231 136.9796,718.916 143.3196,711.336 C300.8436,745.199801 596.9443,735 716.1986,717.962 C731.714787,715.745184 726.8426,718.204 730.7886,714.284 C733.7496,711.34 736.2696,706.299 737.0886,702.248 C738.1826,696.84 736.4166,691.946 733.3206,687.57 C730.0656,682.97 729.4726,675.52 728.2636,670.05 C725.4046,657.119 723.9836,600.329 722.6476,594.036 C722.2316,592.075 721.8286,590.002 721.3426,587.928 C743.2176,590 766.0106,590 786.8216,582.684 C798.6226,578.535 809.6286,572.018 818.1006,562.713 C828.3586,551.446 834.0656,537.262 837.0006,522.457 C840.7876,503.366 841.5916,483.591 840.8476,464.184 C839.8136,441.248 836.0096,417.989 826.5676,396.93 C829.6746,394.045 832.2786,390.564 834.1376,386.798 Z" id="ðŸ–-Ink" fill="#000000"></path>
    </g><g fill="#333" transform="translate(372.000000, 180.000000)">
        <path d="M242.041161,75.2596156 C298.821805,75.2596156 381.931473,113.176005 388.1815,149.6554 C395.546993,192.645412 411.906116,354.298901 402.999889,407.198049 C394.093662,460.097197 359.365264,499.183765 282.566771,499.183765 C205.768277,499.183765 148.446655,457.302629 135.285147,442.922462 C126.510808,433.335685 116.807627,413.625855 106.175605,383.792973 C78.1438338,379.041337 64.0629699,365.492596 63.9330131,343.146752 C63.8030564,320.800909 70.8440111,306.175148 85.0558771,299.269471 C77.3858027,206.570323 81.6113554,148.741029 97.7325351,125.781589 C121.914305,91.3424282 185.260516,75.2596156 242.041161,75.2596156 Z" id="ðŸŽ¨-Background" fill="#fff"></path>
        <path d="M223.340354,-2.99954907 L225.6415,-2.9836 C236.0805,-2.8136 246.6015,-2.4236 257.0805,-1.5636 C257.5715,-1.6136 258.0715,-1.6536 258.5615,-1.7036 C278.2815,-3.5946 297.9715,-1.8946 317.6815,-1.0636 C336.4605,-0.2736 356.2905,1.6664 373.1515,10.6554 C375.3195,11.8094 377.1565,13.1214 378.7235,14.5834 C380.9205,14.8924 383.0155,15.5154 384.8985,16.5624 C390.3265,15.4654 396.3865,17.8974 397.6705,24.1964 C399.5405,33.4264 400.2505,42.7354 399.1305,52.0964 C399.1015,52.3154 399.0805,52.5464 399.0505,52.7864 C401.3175,61.4704 401.1665,70.9544 399.2825,79.5194 C400.0765,90.3414 400.5295,101.1944 400.5925,112.0294 C400.6365,119.5244 400.9705,127.1554 400.2735,134.6284 C399.6595,141.1984 396.9555,146.3974 392.7005,151.3874 C391.8985,152.3274 390.5435,152.4834 389.4165,152.2554 C389.1245,152.1964 388.8705,152.1164 388.6405,152.0214 C391.2055,157.5204 393.2335,163.3544 395.3115,168.9264 C398.6115,177.7864 401.8115,186.7964 404.0805,195.9764 C408.6815,214.4854 411.7105,233.3464 413.4715,252.3364 C416.5805,286.1264 417.7505,320.2064 418.3515,354.1264 C418.9315,386.2664 416.1015,419.7864 397.7905,447.2664 C381.7815,471.3064 357.4015,488.7564 330.2505,498.1764 C314.8005,503.5464 297.6915,505.5364 281.3715,506.0264 C272.9415,506.2764 264.4915,505.9164 256.1115,505.0464 C247.9815,504.1964 239.5715,504.2864 233.6305,498.1264 C232.0005,496.4364 232.0215,492.9664 234.4315,491.8664 C239.0215,489.7764 242.1305,489.5564 247.1615,490.2464 C251.3305,490.8154 255.5115,491.2664 259.7105,491.5564 C268.7105,492.1864 277.7715,492.2064 286.7715,491.5164 C303.3115,490.2464 320.2315,485.5754 335.2505,478.4964 C358.8005,467.3764 379.0315,449.1554 389.9515,425.2464 C402.6415,397.4964 401.8215,365.3464 401.2315,335.5264 C400.5805,302.8264 399.3715,270.2264 396.5315,237.6364 C395.1515,221.8364 393.0215,206.1464 391.1015,190.4164 C390.0905,182.0564 388.7615,173.7354 387.1305,165.4764 C386.2715,161.1054 385.1515,156.7964 384.2315,152.4564 C383.5615,152.5654 382.8805,152.6264 382.1815,152.6554 C378.0005,152.7964 373.4315,151.7764 370.3305,148.8064 C369.1415,149.6164 367.6305,150.1264 365.8115,150.2164 C348.6215,151.0654 331.1615,150.0164 313.9415,150.0064 C296.6615,149.9964 279.3715,150.0064 262.0805,150.0564 C244.8115,150.1054 227.4915,150.2664 210.2315,149.8064 C194.1615,149.3764 177.5505,149.7264 161.6915,146.7864 C156.3615,165.7264 156.5505,186.5364 167.6615,203.4564 C170.8005,208.2264 168.2505,213.8464 164.1615,216.8264 C159.9805,219.8674 152.4655,224.5304 146.0355,225.0094 C145.4125,226.4084 144.7725,227.8004 144.1645,229.1884 C141.0955,236.1814 138.3305,243.2184 136.3955,250.6224 C135.3985,254.4384 134.5405,258.3174 133.8185,262.2204 C133.8775,262.9034 133.9385,263.5854 134.0115,264.2664 C134.0115,264.3364 134.0215,264.4054 134.0315,264.4854 C134.0715,264.7664 134.1215,265.0864 134.1515,265.2664 C134.5215,267.2264 134.8805,269.1864 135.2715,271.1364 C136.2015,275.8864 136.9205,280.6764 137.4315,285.4854 C138.3615,294.2864 138.2715,305.7264 129.6915,310.9364 C125.1015,313.7264 119.6015,313.4364 114.7505,311.5654 C111.4915,310.3064 108.7215,308.5264 105.7215,306.7764 C103.9415,305.7354 102.0805,304.8864 100.3405,303.8064 C99.8615,303.5064 99.4015,303.1464 98.9715,302.7664 C95.7215,303.4564 92.5505,304.7464 90.7715,305.6264 C86.0005,307.9964 81.8115,311.4264 78.2505,315.3664 C70.6815,323.7564 68.4115,335.5764 69.4715,346.5464 C70.4605,356.7564 74.4715,368.4854 82.5405,375.2764 C86.0505,378.2354 90.4315,379.9664 95.0615,379.9164 C97.3405,379.8964 99.4415,379.4164 101.6415,378.8364 C103.8115,378.2664 106.4915,378.4364 108.4915,377.6364 C111.4605,376.4464 115.1215,380.0764 113.9115,383.0564 C113.0005,385.2964 112.4815,387.2764 111.3405,389.0264 C119.6215,402.5464 128.6915,415.6464 138.3405,428.2164 C147.0405,439.5364 157.2815,449.0564 166.9605,459.4264 C171.2315,464.0064 173.0115,473.0264 165.2815,474.9854 C157.5715,476.9564 151.8115,468.6764 147.3805,463.6464 C129.0315,442.7764 115.1615,418.8154 108.6705,391.7664 C105.7415,393.8464 102.3805,394.9764 98.8405,395.4664 C91.7905,396.4364 84.6615,395.0464 78.4815,391.4764 C55.0805,377.9664 49.4205,341.4564 60.3805,318.5764 C63.0235,313.0674 66.9275,308.1494 71.6865,304.3304 C71.3115,303.6134 71.1635,302.7734 71.4045,301.8704 C71.8275,300.2894 72.2925,298.7274 72.7805,297.1714 C72.2475,296.9344 71.8575,296.4444 71.9315,295.7164 C72.3715,291.2164 72.8005,286.7164 73.2315,282.2164 C73.0805,275.4164 72.7505,268.6264 72.8305,261.7864 C72.9515,250.8864 73.6115,239.9964 73.6515,229.0964 C73.7815,191.0764 75.3305,153.0964 75.4415,115.0764 C75.5005,96.4854 75.5405,77.8664 75.0505,59.2864 C75.0405,59.0364 75.0405,58.7964 75.0315,58.5464 C74.6305,43.6764 70.6915,23.7764 85.2315,14.1554 C87.6215,12.5764 90.6015,12.5564 93.2015,13.5764 C100.6815,8.3664 110.0615,5.8554 119.0315,4.4054 C136.1215,1.6464 153.3615,0.3154 170.5715,-1.4346 C179.5505,-2.3446 189.0005,-2.6936 198.0405,-2.4936 C207.1815,-2.2936 216.4415,-3.1236 225.6415,-2.9836 Z M87.0312,329.7963 C90.3002,326.6863 95.1812,327.4053 99.1912,328.1463 C104.7712,329.1763 110.1912,331.6163 114.8912,334.7463 C119.9512,338.1163 126.2012,342.7863 127.2012,349.1763 C128.1112,355.0463 122.2712,361.5163 116.2612,357.5863 C110.6912,353.9363 107.9812,347.2463 103.1912,342.6663 C100.8402,340.4263 98.3002,338.4563 95.6112,336.6553 C94.3912,335.8363 93.1912,334.9263 91.8612,334.2963 C91.7312,334.2353 86.2512,332.4563 87.3112,334.8063 C87.6712,335.5863 86.7312,336.4563 86.0612,335.7663 C84.1612,333.8363 85.2212,331.5163 87.0312,329.7963 Z" id="ðŸ–-Ink" fill="#000"></path>
    </g><g transform="translate(531.000000, 366.000000)">
        <path d="M157.853264,261.089186 L159.986434,260.522285 C167.625732,258.441025 175.553661,255.136935 182.8485,259.665 C185.4825,261.3 185.8795,264.777 183.7975,267.027 C177.888371,273.411339 169.166228,272.172661 161.174911,272.236758 L160.7825,272.241 C152.7425,272.352 144.7625,271.951 136.8055,270.798 C135.7565,270.646 135.5495,268.903 136.5025,268.485 C143.4305,265.447824 150.556036,263.052862 157.853264,261.089186 L157.853264,261.089186 Z M170.814304,144.367155 C178.365682,148.9572 189.871664,159.660291 181.748119,171.039573 C172.185929,181.073062 158.418535,169.568982 151.634201,164.366134 C145.343449,160.333898 138.275437,170.704507 144.112,175.412823 C193.135736,211.708059 213.030606,145.567387 174.633685,138.970386 C170.406047,138.243425 168.835891,142.947174 170.814304,144.367155 Z M223.3163,84.0053 C235.4983,83.6323 235.5093,102.9853 223.3163,102.9333 C219.6763,102.9173 216.0363,102.9163 212.3963,102.9083 C214.5113,110.6193 213.3033,119.8143 209.4833,126.2913 C206.9633,130.5663 200.9323,131.3433 197.4093,127.8473 C191.3273,121.8113 190.1283,112.9843 192.2773,104.9803 L191.8353,103.9333 L191.8353,103.9333 C191.6913,103.5903 191.5883,103.2433 191.5043,102.8943 C179.738967,102.9043 167.973633,102.932522 156.2083,102.951707 L138.5603,102.9703 C127.1023,102.9743 115.6393,103.0673 104.1803,102.9603 C104.3213,103.1733 104.4623,103.3853 104.5773,103.6283 C105.2923,105.1333 105.5953,107.0333 105.8203,108.6603 C106.2043,111.4523 106.1583,114.4593 105.7183,117.2403 C105.3973,119.2723 104.8073,121.6923 103.6763,123.6073 L103.6693,123.6473 L103.6693,123.6473 C103.1363,125.9193 102.4633,128.0943 100.7063,129.7333 C100.1783,130.2243 99.6633,130.5743 99.1193,130.8223 C98.0923,131.8973 96.7703,132.6083 95.0333,132.630932 C94.1113,132.6413 93.1003,132.3723 92.1203,131.9903 C90.6133,132.1163 89.0573,131.4343 87.7243,130.8303 C86.6553,130.3453 85.6743,129.7013 84.8833,128.8613 C84.5123,128.7733 84.1383,128.6283 83.7643,128.3973 C81.4723,126.9873 80.5963,124.1613 80.4773,121.6093 C80.4693,121.4543 80.4753,121.2913 80.4703,121.1343 C80.3853,120.7883 80.3093,120.4403 80.2513,120.0903 C79.4893,115.5553 80.4153,110.4483 81.3853,106.0413 C81.6293,104.9383 81.8303,103.6573 82.1293,102.4183 C79.8423,102.3293 77.5573,102.2413 75.2703,102.1473 C69.5423,101.9133 62.5513,102.6803 57.2523,100.2593 C56.8663,100.0843 56.9703,99.5703 57.2523,99.3693 C62.1445222,95.8722167 69.7457336,95.3062483 75.6375743,94.1545348 L76.1383,94.0543 C83.1643,92.6133 90.1863,91.4013 97.2833,90.3663 C110.9443,88.3743 124.7803,87.3023 138.5603,86.5303 C166.7733,84.9503 195.0743,84.8683 223.3163,84.0053 Z" id="ðŸ–-Ink" fill="#000000"></path>
    </g><g transform="translate(494.999934, 517.999659)"></g><g transform="translate(419.000000, 421.000000)">
        <path d="M372.3111,95.4577 C360.1701,108.0027 339.9021,111.6027 323.7491,104.8747 C282.2731,87.5457 302.5741,33.4957 334.5611,18.9807 C338.5571,17.9847 343.8941,15.6217 348.7611,15.0857 C349.2011,14.8697 350.1591,15.4947 351.3201,14.9037 C386.5911,18.8417 394.6231,73.5937 372.3111,95.4577 M238.5331,98.6687 C224.9161,116.7297 199.6001,122.3017 178.9161,113.9057 C138.0541,97.8137 152.5471,49.8847 180.5041,31.0947 C239.5611,8.9037 263.9481,65.3677 238.5331,98.6687 M149.9531,58.6507 C149.9151,58.6327 149.8771,58.6237 149.8381,58.6057 C150.0541,58.5107 150.2701,58.4157 150.4851,58.3187 C150.4151,58.5017 150.3391,58.6827 150.2711,58.8657 C150.1651,58.7927 150.0721,58.7077 149.9531,58.6507 M400.4231,39.1277 C397.0891,39.1347 392.2731,39.6827 389.5131,41.9957 C382.7071,19.0427 357.5851,-2.2003 335.7371,13.2897 C318.5321,18.8227 305.7651,31.0937 298.5091,47.4077 C285.4261,39.6257 264.8541,42.9487 253.5091,53.2397 C246.0791,28.6887 227.7931,20.0917 206.0281,18.8227 C182.2721,14.9317 158.5941,38.0027 151.2061,56.5107 C145.0631,55.8117 135.8841,53.8567 130.1051,57.6477 C92.5981,47.8117 27.0231,42.3887 19.3981,47.8537 C13.9641,49.9387 10.9821,62.7647 18.5721,63.4567 C25.1861,62.5177 17.8001,54.0587 24.4671,53.1357 C59.9901,50.9337 94.4751,58.0877 129.6221,61.0897 C132.7601,65.3107 142.8991,66.7227 148.3081,65.0267 C139.7891,96.4227 158.1791,117.7827 185.7341,124.1807 C228.4011,133.9817 265.5221,95.8137 254.3651,56.1137 C267.2901,49.6837 282.1571,49.9597 296.2371,53.3467 C272.7091,139.9367 412.1661,136.0517 390.3851,44.9627 C404.8801,52.1727 408.0281,40.5827 400.4231,39.1277" id="ðŸ–-Ink" fill="#000000"></path>
    </g></g></svg>