<svg id="avatar" viewBox="0 0 1136 1533" version="1.1" overflow="hidden" xmlns="http://www.w3.org/2000/svg" class="size-full max-h-[320px] md:max-h-[520px]"><g stroke="none" stroke-width="1" fill="none" fill-rule="evenodd"><g transform="translate(147.000000, 639.000000)">
        <path d="M659.9332,217.9773 C651.2492,214.8813 642.8792,211.3053 635.2532,206.0453 C613.2702,189.6823 598.9362,165.0573 585.3922,141.7263 C566.3142,107.7933 552.7232,71.6353 543.3282,33.9153 C539.2912,17.7093 537.9202,-1.0807 528.7482,-15.4487 C507.9562,-45.5337 446.9872,-41.6357 414.6122,-36.3547 C392.9322,-32.5187 388.4512,-8.2567 383.5272,9.6963 C379.4272,24.6133 376.7432,39.6993 374.4902,54.9873 C369.1302,58.5113 363.0792,61.3733 357.3112,63.8663 C294.4522,83.1413 283.4042,118.8753 259.3952,174.0733 C218.8442,254.3023 108.8092,285.7153 92.1882,380.6643 C81.4792,443.3493 111.9322,502.3223 143.3292,554.4343 C172.5692,611.3553 213.3902,638.6753 278.3992,625.2273 C339.3742,611.5493 397.9742,588.6683 457.8762,570.9873 C486.8892,563.8543 515.8562,545.3003 546.3752,551.7693 C609.2602,565.8923 673.8712,572.5323 738.3172,570.6993 C828.8012,574.3583 828.7872,487.5133 819.5002,420.2603 C812.9952,315.5993 760.2052,248.3953 659.9332,217.9773 L659.9332,217.9773 Z" id="ðŸŽ¨-Background" fill="#FFFFFF"></path>
        <path d="M665.9826,369.422 C673.5436,374.422 679.9026,382.003 685.0076,389.981 C663.6956,387.764 642.4206,385.208 621.1926,382.298 C623.9716,380.522 626.7766,378.785 629.6456,377.145 C640.1126,371.247 654.2946,361.694 665.9826,369.422 Z M311.8976,432.42 C307.9926,430.891 306.4816,424.937 304.9596,421.524 C300.1876,410.821 295.8326,399.936 291.3016,389.129 C308.5056,384.225 325.2356,378.784 343.0576,376.17 C362.2206,373.362 381.6666,372.682 401.0066,373.313 C440.1806,374.591 478.9906,380.993 517.5046,387.858 C555.9736,394.715 594.4406,401.303 633.1786,406.473 C671.1316,411.538 709.2046,415.245 747.3486,418.499 C754.7596,419.132 767.1166,421.797 773.0766,415.965 C777.7956,411.346 777.9486,402.827 772.0436,399.072 C768.3656,396.731 763.0366,396.697 758.8346,396.157 C753.5426,395.476 748.2296,395.023 742.9056,394.67 C740.7366,394.527 738.5676,394.395 736.3976,394.263 C753.8146,387.696 772.0056,384.115 790.8876,385.113 C791.9556,391.6 796.7666,398.274 799.3996,403.624 C803.9976,412.964 807.5816,422.417 809.9346,432.573 C814.8526,453.801 815.0666,475.833 813.6776,497.484 C812.4016,515.536 809.6606,535.504 795.5006,548.289 C784.7796,557.969 769.6536,561.553 755.6206,562.68 C739.3106,563.99 722.7486,562.591 706.5756,560.405 C683.8916,557.338 661.1016,553.282 638.8636,547.846 C595.7926,537.318 554.5086,520.566 516.4196,497.854 C497.8446,486.779 480.1206,474.319 461.2906,463.665 C442.1036,452.807 421.6876,444.384 400.2496,439.154 C376.2586,433.301 351.1786,430.803 326.5206,432.247 C322.2416,432.497 316.0596,434.049 311.8976,432.42 Z M284.0956,421.552 C286.6166,429.733 288.5456,439.074 293.9266,445.948 C299.2566,452.76 307.2976,455.164 315.6276,455.77 C325.6716,456.499 335.8336,456.032 345.8996,456.406 C366.5446,457.173 386.9066,460.526 406.6426,466.677 C425.0346,472.41 442.1076,481.352 458.5536,491.272 C473.7616,500.446 488.5236,510.295 503.7366,519.441 C499.6876,521.297 495.6846,523.305 491.6596,525.053 C483.2176,528.719 474.7236,532.256 466.1916,535.705 C449.3666,542.505 432.4706,549.14 415.4016,555.304 C380.9836,567.733 345.9996,578.592 310.5946,587.842 C293.7086,592.254 276.5826,597.407 259.0396,598.141 C243.4836,598.791 229.0746,594.394 216.5286,585.145 C190.5066,565.961 169.8036,538.271 153.0676,510.958 C143.1246,494.731 134.4476,477.681 127.2706,460.052 C123.6406,451.137 120.3486,442.085 117.3856,432.927 C115.9956,428.627 114.6776,424.303 113.4296,419.959 C112.8806,418.049 112.3546,416.133 111.8336,414.215 C138.4426,406.095 165.3676,398.765 192.9246,394.696 C207.6376,392.523 222.5466,391.423 237.4206,391.583 C244.8036,391.662 252.1826,392.061 259.5266,392.823 C263.4796,393.233 267.4166,393.761 271.3366,394.415 C272.9566,394.684 274.6216,395.082 276.2916,395.375 C278.8426,404.116 281.4146,412.85 284.0956,421.552 Z M834.1376,386.798 C835.5716,383.897 836.1766,381.043 836.6906,377.885 C837.0826,375.476 838.1226,372.085 837.2116,368.957 C836.1916,365.454 833.4126,362.321 831.4176,359.333 C829.2146,356.031 827.0136,352.727 824.8156,349.421 C820.4186,342.81 816.0316,336.193 811.6516,329.571 C793.7646,302.53 775.9996,275.411 758.2066,248.309 C742.4166,224.258 726.8926,199.991 710.6216,176.263 C696.7086,155.973 681.5436,136.018 662.4996,120.238 C638.4206,100.286 609.7486,90.887 579.7996,83.553 C576.5286,80.158 572.1596,78.304 567.4896,78.68 C560.8916,71.197 555.6476,65.97 553.2706,56.454 C552.1316,51.896 552.4886,39.089 548.0496,36.392 C542.7766,33.188 540.022734,37.4286356 538.5686,42.208 C533.7036,58.198 539.2876,79.696 552.1376,95.713 C546.7236,114.424 539.5456,141.016 526.7406,156.006 C513.0286,172.057 494.0656,177.053 473.6056,177.382 C434.5876,178.01 395.6106,163.509 365.8496,138.377 C356.8036,130.739 348.4026,122.208 340.8016,113.135 C335.1006,106.328 328.3566,95.823 323.8966,87.883 C323.8966,84.7887764 320.243294,81.553 357.4366,79.053 C394.629906,76.553 397.4506,25.626 398.2776,18.695 C398.9496,13.067 401.8076,4.331 397.8416,-0.258 C396.1586,-2.207 392.7046,-2.521 390.5706,-1.197 C386.5466,1.302 385.2246,7.692 383.9596,12.031 C382.1876,18.11 376.3946,55.837 365.4176,60.205 C360.2786,62.25 354.3846,62.288 348.9486,62.666 C342.2356,63.135 335.5086,63.478 328.8226,64.259 C326.3566,64.547 323.6666,65.345 321.2336,65.368 C319.6506,65.383 318.0176,64.614 316.4876,64.074 C311.3236,62.249 306.1636,63.618 300.8436,64.333 C253.8076,70.654 205.3766,85.081 165.2566,111.04 C129.8946,133.92 104.9816,166.825 88.5426,205.297 C71.7696,244.559 62.1556,287.016 54.0986,328.812 C51.3996,342.816 49.0426,356.885 47.0176,371.002 C45.0606,384.643 42.6126,398.589 42.0266,412.368 C41.7946,417.82 43.0976,422.885 45.1026,427.865 C47.3606,433.47 52.6976,435.68 57.8166,438.297 C69.0536,444.045 80.9076,448.503 93.1206,451.66 C100.5816,465.233 106.8606,479.336 111.9066,493.973 C110.0346,497.682 109.9956,503.221 109.6356,506.826 C108.7426,515.803 108.3606,524.827 108.2806,533.845 C108.1196,551.92 109.2066,569.977 110.0586,588.024 C110.9226,606.328 113.7946,678.547 114.2626,687.366 C114.6266,694.217 114.1366,703.8 117.7456,709.882 C123.2916,719.231 136.9796,718.916 143.3196,711.336 C300.8436,745.199801 596.9443,735 716.1986,717.962 C731.714787,715.745184 726.8426,718.204 730.7886,714.284 C733.7496,711.34 736.2696,706.299 737.0886,702.248 C738.1826,696.84 736.4166,691.946 733.3206,687.57 C730.0656,682.97 729.4726,675.52 728.2636,670.05 C725.4046,657.119 723.9836,600.329 722.6476,594.036 C722.2316,592.075 721.8286,590.002 721.3426,587.928 C743.2176,590 766.0106,590 786.8216,582.684 C798.6226,578.535 809.6286,572.018 818.1006,562.713 C828.3586,551.446 834.0656,537.262 837.0006,522.457 C840.7876,503.366 841.5916,483.591 840.8476,464.184 C839.8136,441.248 836.0096,417.989 826.5676,396.93 C829.6746,394.045 832.2786,390.564 834.1376,386.798 Z" id="ðŸ–-Ink" fill="#000000"></path>
    </g><g fill="#333" transform="translate(372.000000, 180.000000)">
        <path d="M242.041161,75.2596156 C298.821805,75.2596156 357.551668,119.271611 378.365264,147.356837 C402.432055,179.831825 421.416954,335.7285 412.510727,388.627648 C403.6045,441.526795 359.365264,499.183765 282.566771,499.183765 C205.768277,499.183765 159.031094,489.72438 157.157053,475.984472 C155.907692,466.824533 139.023041,436.751409 106.5031,385.7651 C73.2430134,376.410121 56.5475248,360.55971 56.4166341,338.213866 C56.2876114,315.868022 65.1995229,300.630067 83.1523686,292.5 C76.7512999,204.313833 81.6113554,148.741029 97.7325351,125.781589 C121.914305,91.3424282 185.260516,75.2596156 242.041161,75.2596156 Z" id="ðŸŽ¨-Background" fill="#fff"></path>
        <path d="M213.131911,62.0006544 L214.1441,62.0051 C276.96851,62.411 340.86433,91.3199108 378.24079,141.819932 L379.365264,143.356837 C379.426264,143.436837 380.54442,145.101688 380.808846,145.576157 C382.358288,148.356371 384.183034,150.957633 385.5831,153.7851 C386.764918,156.1851 387.550869,158.866092 388.419539,161.422365 L388.6831,162.1851 C390.9141,168.5651 392.7931,175.0051 394.4541,181.5551 C397.6731,194.3051 400.1831,207.2551 402.6241,220.1751 C411.344526,266.439355 417.04661,313.364561 419.919731,360.350706 L420.486794,369.798471 C421.066435,379.597307 421.504814,389.438314 420.4041,399.2051 C419.1331,410.5751 415.8641,421.2451 410.9141,431.5451 C406.3531,441.0451 400.4731,449.8451 393.7441,457.9351 C390.1441,462.2651 386.3241,466.4751 381.6241,469.6441 C377.8831,472.1651 373.5131,473.8251 369.3031,475.4251 C362.4541,482.2651 353.6641,487.4351 345.0741,491.5651 C330.9141,498.3551 315.5641,502.1051 300.0341,503.9851 C284.1541,505.8941 268.1141,505.4351 252.3641,502.7051 C237.3141,500.1051 221.1831,493.4551 211.9141,480.7851 C211.1141,479.6951 212.6031,478.6651 213.5831,479.1151 C240.4841,491.5651 270.7131,494.8151 300.0341,490.8851 C313.7131,489.0551 327.1731,485.2751 339.6641,479.4051 C350.2041,474.4551 359.0931,467.2551 368.5531,460.7351 C370.3941,458.2851 372.2531,455.8751 374.3741,453.6351 L377.682932,450.165223 C380.156183,447.558828 382.584638,444.917408 384.7931,442.0651 C391.6141,433.2751 397.2631,423.3051 400.9941,412.8151 C408.2497,392.395671 406.287498,370.230447 405.005225,348.950388 L404.8941,347.0751 C403.5741,324.3151 401.4231,301.6351 398.4441,279.0351 C395.4631,256.4051 391.6731,233.8651 387.1941,211.4851 C384.9841,200.4551 382.5031,189.4951 380.3141,178.4651 C379.1831,172.7751 378.3941,167.0051 377.5341,161.2551 C377.0131,157.7551 377.0231,154.3851 377.0131,150.9651 C376.9141,151.1251 376.7931,151.2751 376.6731,151.4251 C377.0341,152.2751 376.7841,153.3651 375.9041,153.8651 C372.5741,155.7651 368.7341,155.1251 364.9841,155.1351 C361.0031,155.1551 357.0231,155.1651 353.0431,155.1751 C348.8981,155.1901 344.7531,155.1901 340.6081,155.18385 L328.1731,155.1551 L278.4331,155.0051 C245.858681,154.907426 212.73188,156.202634 180.262227,153.131938 L177.783241,152.887188 C175.231932,152.593371 146.437335,149.07211 138.650545,148.162663 L138.4141,148.1351 C124.1831,146.4951 110.1541,144.0651 96.3241,140.4251 C100.8431,142.2351 105.1941,144.6751 109.6731,146.5251 C115.4541,148.9051 121.3831,150.9851 127.3141,152.9751 C139.4841,157.0651 151.6731,161.0351 163.7931,165.2551 C167.268,166.4629 175.164131,196.230814 177.154601,200.940119 L177.2131,201.0751 C178.2231,203.3451 179.6141,205.8351 178.8431,208.4151 C177.1441,214.1151 168.1331,218.3351 163.6641,221.5551 L159.0686,224.87135 L159.0686,224.87135 L153.059075,229.219137 C150.594086,230.984712 148.318363,232.335626 145.0931,231.3251 C145.0831,231.3151 145.0741,231.3151 145.0641,231.3151 C147.8241,244.1251 149.1641,285.5551 149.5741,292.8251 C149.9331,299.1551 151.7931,307.2651 148.8331,313.0351 C148.1331,314.4051 146.3141,315.4851 144.7631,315.3751 C138.0031,314.8651 131.2441,314.3651 124.4841,313.8651 C122.6731,313.7251 121.0231,312.6951 120.5231,310.8551 L120.5031,310.7551 L120.5031,310.7551 C120.2841,310.8151 120.0341,310.7751 119.8241,310.5551 C119.4541,310.1851 119.0741,309.8251 118.6831,309.4751 C109.7841,301.5351 95.8641,299.5751 84.8831,303.7051 C79.1241,305.8651 72.5741,309.5051 68.5131,314.2251 C64.0031,319.4651 63.0341,326.7851 63.0231,333.4751 C63.0031,346.3751 67.6641,359.4351 77.1731,368.3851 C85.911031,376.600686 97.1855423,378.99174 108.52862,381.343061 L109.7441,381.5951 C112.3331,382.1351 113.1541,385.9951 111.2041,387.6151 C116.3941,392.6951 120.8741,398.7551 125.2441,404.3451 C131.0466,411.760933 136.596176,419.470864 141.994503,427.1976 L144.600655,430.93532 C153.887812,444.189372 167.3305,462.4455 161.4841,479.0151 C160.7041,481.2451 157.4441,482.0451 156.1731,479.7051 C152.0031,472.0051 149.6731,463.5251 145.7131,455.7351 C141.8241,448.0951 136.9841,441.0151 132.1831,433.9351 L129.414095,429.832137 C124.803794,422.979822 120.236433,416.053433 116.0031,408.9951 L113.055323,404.107864 C110.285593,399.492967 107.544153,394.724047 105.5031,389.7651 C91.8531,393.0551 77.0131,385.7351 67.4231,375.9851 C55.3641,363.7051 49.6941,345.6151 51.2531,328.6051 C52.0741,319.7051 54.7041,311.0951 61.2231,304.6951 C61.8831,304.0551 62.5741,303.4451 63.2841,302.8351 C63.0341,302.7051 62.8241,302.5051 62.7231,302.2651 C58.3531,291.8851 57.4231,279.5151 57.0531,268.3351 C56.6641,256.7751 56.9141,245.1851 57.7931,233.6451 C59.4041,212.4851 63.2231,191.4351 69.2841,171.0951 C78.2531,141.0351 93.6641,111.6051 118.2841,91.4351 C144.53791,69.9224 179.71161,61.944881 213.131911,62.0006544 Z M82.4444,324.9251 C86.1520087,323.242491 91.9362951,326.239585 95.2370772,328.14945 L95.4534,328.2751 C105.2034,333.9451 112.1444,343.6051 115.3534,354.3051 C117.4134,361.2051 105.8434,363.9551 104.8634,357.1951 C104.0644,351.6851 102.2234,346.5251 99.1944,341.9151 C98.4734,342.1551 97.7734,342.4651 97.1444,342.8651 C94.7344,344.4251 93.3334,347.1051 89.9844,346.7051 C87.5034,346.4151 84.9634,344.6951 85.1334,341.8551 C85.4044,337.1651 89.1834,335.2951 93.2344,335.0551 C92.65615,334.5376 92.0728375,334.025725 91.4756031,333.532131 L90.8217493,333.006821 C90.0805155,332.471445 82.1560075,327.005825 81.9281084,328.411539 L81.9234,328.4951 C81.9334,329.0551 81.1834,329.3751 80.8034,328.9551 C79.2734,327.3151 80.6944,325.7251 82.4444,324.9251 Z" id="ðŸ–-Ink" fill="#000"></path>
    </g><g transform="translate(531.000000, 366.000000)">
        <path d="M157.853264,261.089186 L159.986434,260.522285 C167.625732,258.441025 175.553661,255.136935 182.8485,259.665 C185.4825,261.3 185.8795,264.777 183.7975,267.027 C177.888371,273.411339 169.166228,272.172661 161.174911,272.236758 L160.7825,272.241 C152.7425,272.352 144.7625,271.951 136.8055,270.798 C135.7565,270.646 135.5495,268.903 136.5025,268.485 C143.4305,265.447824 150.556036,263.052862 157.853264,261.089186 L157.853264,261.089186 Z M170.814304,144.367155 C178.365682,148.9572 189.871664,159.660291 181.748119,171.039573 C172.185929,181.073062 158.418535,169.568982 151.634201,164.366134 C145.343449,160.333898 138.275437,170.704507 144.112,175.412823 C193.135736,211.708059 213.030606,145.567387 174.633685,138.970386 C170.406047,138.243425 168.835891,142.947174 170.814304,144.367155 Z M223.3163,84.0053 C235.4983,83.6323 235.5093,102.9853 223.3163,102.9333 C219.6763,102.9173 216.0363,102.9163 212.3963,102.9083 C214.5113,110.6193 213.3033,119.8143 209.4833,126.2913 C206.9633,130.5663 200.9323,131.3433 197.4093,127.8473 C191.3273,121.8113 190.1283,112.9843 192.2773,104.9803 L191.8353,103.9333 L191.8353,103.9333 C191.6913,103.5903 191.5883,103.2433 191.5043,102.8943 C179.738967,102.9043 167.973633,102.932522 156.2083,102.951707 L138.5603,102.9703 C127.1023,102.9743 115.6393,103.0673 104.1803,102.9603 C104.3213,103.1733 104.4623,103.3853 104.5773,103.6283 C105.2923,105.1333 105.5953,107.0333 105.8203,108.6603 C106.2043,111.4523 106.1583,114.4593 105.7183,117.2403 C105.3973,119.2723 104.8073,121.6923 103.6763,123.6073 L103.6693,123.6473 L103.6693,123.6473 C103.1363,125.9193 102.4633,128.0943 100.7063,129.7333 C100.1783,130.2243 99.6633,130.5743 99.1193,130.8223 C98.0923,131.8973 96.7703,132.6083 95.0333,132.630932 C94.1113,132.6413 93.1003,132.3723 92.1203,131.9903 C90.6133,132.1163 89.0573,131.4343 87.7243,130.8303 C86.6553,130.3453 85.6743,129.7013 84.8833,128.8613 C84.5123,128.7733 84.1383,128.6283 83.7643,128.3973 C81.4723,126.9873 80.5963,124.1613 80.4773,121.6093 C80.4693,121.4543 80.4753,121.2913 80.4703,121.1343 C80.3853,120.7883 80.3093,120.4403 80.2513,120.0903 C79.4893,115.5553 80.4153,110.4483 81.3853,106.0413 C81.6293,104.9383 81.8303,103.6573 82.1293,102.4183 C79.8423,102.3293 77.5573,102.2413 75.2703,102.1473 C69.5423,101.9133 62.5513,102.6803 57.2523,100.2593 C56.8663,100.0843 56.9703,99.5703 57.2523,99.3693 C62.1445222,95.8722167 69.7457336,95.3062483 75.6375743,94.1545348 L76.1383,94.0543 C83.1643,92.6133 90.1863,91.4013 97.2833,90.3663 C110.9443,88.3743 124.7803,87.3023 138.5603,86.5303 C166.7733,84.9503 195.0743,84.8683 223.3163,84.0053 Z" id="ðŸ–-Ink" fill="#000000"></path>
    </g><g transform="translate(494.999934, 517.999659)"></g><g transform="translate(419.000000, 421.000000)">
        <path d="M372.3111,95.4577 C360.1701,108.0027 339.9021,111.6027 323.7491,104.8747 C282.2731,87.5457 302.5741,33.4957 334.5611,18.9807 C338.5571,17.9847 343.8941,15.6217 348.7611,15.0857 C349.2011,14.8697 350.1591,15.4947 351.3201,14.9037 C386.5911,18.8417 394.6231,73.5937 372.3111,95.4577 M238.5331,98.6687 C224.9161,116.7297 199.6001,122.3017 178.9161,113.9057 C138.0541,97.8137 152.5471,49.8847 180.5041,31.0947 C239.5611,8.9037 263.9481,65.3677 238.5331,98.6687 M149.9531,58.6507 C149.9151,58.6327 149.8771,58.6237 149.8381,58.6057 C150.0541,58.5107 150.2701,58.4157 150.4851,58.3187 C150.4151,58.5017 150.3391,58.6827 150.2711,58.8657 C150.1651,58.7927 150.0721,58.7077 149.9531,58.6507 M400.4231,39.1277 C397.0891,39.1347 392.2731,39.6827 389.5131,41.9957 C382.7071,19.0427 357.5851,-2.2003 335.7371,13.2897 C318.5321,18.8227 305.7651,31.0937 298.5091,47.4077 C285.4261,39.6257 264.8541,42.9487 253.5091,53.2397 C246.0791,28.6887 227.7931,20.0917 206.0281,18.8227 C182.2721,14.9317 158.5941,38.0027 151.2061,56.5107 C145.0631,55.8117 135.8841,53.8567 130.1051,57.6477 C92.5981,47.8117 27.0231,42.3887 19.3981,47.8537 C13.9641,49.9387 10.9821,62.7647 18.5721,63.4567 C25.1861,62.5177 17.8001,54.0587 24.4671,53.1357 C59.9901,50.9337 94.4751,58.0877 129.6221,61.0897 C132.7601,65.3107 142.8991,66.7227 148.3081,65.0267 C139.7891,96.4227 158.1791,117.7827 185.7341,124.1807 C228.4011,133.9817 265.5221,95.8137 254.3651,56.1137 C267.2901,49.6837 282.1571,49.9597 296.2371,53.3467 C272.7091,139.9367 412.1661,136.0517 390.3851,44.9627 C404.8801,52.1727 408.0281,40.5827 400.4231,39.1277" id="ðŸ–-Ink" fill="#000000"></path>
    </g></g></svg>