<svg id="avatar" viewBox="0 0 1136 1533" version="1.1" overflow="hidden" xmlns="http://www.w3.org/2000/svg" class="size-full max-h-[320px] md:max-h-[520px]"><g stroke="none" stroke-width="1" fill="none" fill-rule="evenodd"><g transform="translate(147.000000, 639.000000)">
        <path d="M659.9332,217.9773 C651.2492,214.8813 642.8792,211.3053 635.2532,206.0453 C613.2702,189.6823 598.9362,165.0573 585.3922,141.7263 C566.3142,107.7933 552.7232,71.6353 543.3282,33.9153 C539.2912,17.7093 537.9202,-1.0807 528.7482,-15.4487 C507.9562,-45.5337 446.9872,-41.6357 414.6122,-36.3547 C392.9322,-32.5187 388.4512,-8.2567 383.5272,9.6963 C379.4272,24.6133 376.7432,39.6993 374.4902,54.9873 C369.1302,58.5113 363.0792,61.3733 357.3112,63.8663 C294.4522,83.1413 283.4042,118.8753 259.3952,174.0733 C218.8442,254.3023 108.8092,285.7153 92.1882,380.6643 C81.4792,443.3493 111.9322,502.3223 143.3292,554.4343 C172.5692,611.3553 213.3902,638.6753 278.3992,625.2273 C339.3742,611.5493 397.9742,588.6683 457.8762,570.9873 C486.8892,563.8543 515.8562,545.3003 546.3752,551.7693 C609.2602,565.8923 673.8712,572.5323 738.3172,570.6993 C828.8012,574.3583 828.7872,487.5133 819.5002,420.2603 C812.9952,315.5993 760.2052,248.3953 659.9332,217.9773 L659.9332,217.9773 Z" id="ðŸŽ¨-Background" fill="#FFFFFF"></path>
        <path d="M665.9826,369.422 C673.5436,374.422 679.9026,382.003 685.0076,389.981 C663.6956,387.764 642.4206,385.208 621.1926,382.298 C623.9716,380.522 626.7766,378.785 629.6456,377.145 C640.1126,371.247 654.2946,361.694 665.9826,369.422 Z M311.8976,432.42 C307.9926,430.891 306.4816,424.937 304.9596,421.524 C300.1876,410.821 295.8326,399.936 291.3016,389.129 C308.5056,384.225 325.2356,378.784 343.0576,376.17 C362.2206,373.362 381.6666,372.682 401.0066,373.313 C440.1806,374.591 478.9906,380.993 517.5046,387.858 C555.9736,394.715 594.4406,401.303 633.1786,406.473 C671.1316,411.538 709.2046,415.245 747.3486,418.499 C754.7596,419.132 767.1166,421.797 773.0766,415.965 C777.7956,411.346 777.9486,402.827 772.0436,399.072 C768.3656,396.731 763.0366,396.697 758.8346,396.157 C753.5426,395.476 748.2296,395.023 742.9056,394.67 C740.7366,394.527 738.5676,394.395 736.3976,394.263 C753.8146,387.696 772.0056,384.115 790.8876,385.113 C791.9556,391.6 796.7666,398.274 799.3996,403.624 C803.9976,412.964 807.5816,422.417 809.9346,432.573 C814.8526,453.801 815.0666,475.833 813.6776,497.484 C812.4016,515.536 809.6606,535.504 795.5006,548.289 C784.7796,557.969 769.6536,561.553 755.6206,562.68 C739.3106,563.99 722.7486,562.591 706.5756,560.405 C683.8916,557.338 661.1016,553.282 638.8636,547.846 C595.7926,537.318 554.5086,520.566 516.4196,497.854 C497.8446,486.779 480.1206,474.319 461.2906,463.665 C442.1036,452.807 421.6876,444.384 400.2496,439.154 C376.2586,433.301 351.1786,430.803 326.5206,432.247 C322.2416,432.497 316.0596,434.049 311.8976,432.42 Z M284.0956,421.552 C286.6166,429.733 288.5456,439.074 293.9266,445.948 C299.2566,452.76 307.2976,455.164 315.6276,455.77 C325.6716,456.499 335.8336,456.032 345.8996,456.406 C366.5446,457.173 386.9066,460.526 406.6426,466.677 C425.0346,472.41 442.1076,481.352 458.5536,491.272 C473.7616,500.446 488.5236,510.295 503.7366,519.441 C499.6876,521.297 495.6846,523.305 491.6596,525.053 C483.2176,528.719 474.7236,532.256 466.1916,535.705 C449.3666,542.505 432.4706,549.14 415.4016,555.304 C380.9836,567.733 345.9996,578.592 310.5946,587.842 C293.7086,592.254 276.5826,597.407 259.0396,598.141 C243.4836,598.791 229.0746,594.394 216.5286,585.145 C190.5066,565.961 169.8036,538.271 153.0676,510.958 C143.1246,494.731 134.4476,477.681 127.2706,460.052 C123.6406,451.137 120.3486,442.085 117.3856,432.927 C115.9956,428.627 114.6776,424.303 113.4296,419.959 C112.8806,418.049 112.3546,416.133 111.8336,414.215 C138.4426,406.095 165.3676,398.765 192.9246,394.696 C207.6376,392.523 222.5466,391.423 237.4206,391.583 C244.8036,391.662 252.1826,392.061 259.5266,392.823 C263.4796,393.233 267.4166,393.761 271.3366,394.415 C272.9566,394.684 274.6216,395.082 276.2916,395.375 C278.8426,404.116 281.4146,412.85 284.0956,421.552 Z M834.1376,386.798 C835.5716,383.897 836.1766,381.043 836.6906,377.885 C837.0826,375.476 838.1226,372.085 837.2116,368.957 C836.1916,365.454 833.4126,362.321 831.4176,359.333 C829.2146,356.031 827.0136,352.727 824.8156,349.421 C820.4186,342.81 816.0316,336.193 811.6516,329.571 C793.7646,302.53 775.9996,275.411 758.2066,248.309 C742.4166,224.258 726.8926,199.991 710.6216,176.263 C696.7086,155.973 681.5436,136.018 662.4996,120.238 C638.4206,100.286 609.7486,90.887 579.7996,83.553 C576.5286,80.158 572.1596,78.304 567.4896,78.68 C560.8916,71.197 555.6476,65.97 553.2706,56.454 C552.1316,51.896 552.4886,39.089 548.0496,36.392 C542.7766,33.188 540.022734,37.4286356 538.5686,42.208 C533.7036,58.198 539.2876,79.696 552.1376,95.713 C546.7236,114.424 539.5456,141.016 526.7406,156.006 C513.0286,172.057 494.0656,177.053 473.6056,177.382 C434.5876,178.01 395.6106,163.509 365.8496,138.377 C356.8036,130.739 348.4026,122.208 340.8016,113.135 C335.1006,106.328 328.3566,95.823 323.8966,87.883 C323.8966,84.7887764 320.243294,81.553 357.4366,79.053 C394.629906,76.553 397.4506,25.626 398.2776,18.695 C398.9496,13.067 401.8076,4.331 397.8416,-0.258 C396.1586,-2.207 392.7046,-2.521 390.5706,-1.197 C386.5466,1.302 385.2246,7.692 383.9596,12.031 C382.1876,18.11 376.3946,55.837 365.4176,60.205 C360.2786,62.25 354.3846,62.288 348.9486,62.666 C342.2356,63.135 335.5086,63.478 328.8226,64.259 C326.3566,64.547 323.6666,65.345 321.2336,65.368 C319.6506,65.383 318.0176,64.614 316.4876,64.074 C311.3236,62.249 306.1636,63.618 300.8436,64.333 C253.8076,70.654 205.3766,85.081 165.2566,111.04 C129.8946,133.92 104.9816,166.825 88.5426,205.297 C71.7696,244.559 62.1556,287.016 54.0986,328.812 C51.3996,342.816 49.0426,356.885 47.0176,371.002 C45.0606,384.643 42.6126,398.589 42.0266,412.368 C41.7946,417.82 43.0976,422.885 45.1026,427.865 C47.3606,433.47 52.6976,435.68 57.8166,438.297 C69.0536,444.045 80.9076,448.503 93.1206,451.66 C100.5816,465.233 106.8606,479.336 111.9066,493.973 C110.0346,497.682 109.9956,503.221 109.6356,506.826 C108.7426,515.803 108.3606,524.827 108.2806,533.845 C108.1196,551.92 109.2066,569.977 110.0586,588.024 C110.9226,606.328 113.7946,678.547 114.2626,687.366 C114.6266,694.217 114.1366,703.8 117.7456,709.882 C123.2916,719.231 136.9796,718.916 143.3196,711.336 C300.8436,745.199801 596.9443,735 716.1986,717.962 C731.714787,715.745184 726.8426,718.204 730.7886,714.284 C733.7496,711.34 736.2696,706.299 737.0886,702.248 C738.1826,696.84 736.4166,691.946 733.3206,687.57 C730.0656,682.97 729.4726,675.52 728.2636,670.05 C725.4046,657.119 723.9836,600.329 722.6476,594.036 C722.2316,592.075 721.8286,590.002 721.3426,587.928 C743.2176,590 766.0106,590 786.8216,582.684 C798.6226,578.535 809.6286,572.018 818.1006,562.713 C828.3586,551.446 834.0656,537.262 837.0006,522.457 C840.7876,503.366 841.5916,483.591 840.8476,464.184 C839.8136,441.248 836.0096,417.989 826.5676,396.93 C829.6746,394.045 832.2786,390.564 834.1376,386.798 Z" id="ðŸ–-Ink" fill="#000000"></path>
    </g><g fill="#333" transform="translate(372.000000, 180.000000)">
        <path d="M385.414655,173.221564 C381.553655,149.862425 394.225655,145.015818 385.414655,122.81092 C365.832655,81.6673118 312.467655,83.4400723 273.307655,80.2766375 C229.629655,78.6026407 185.421655,84.3688512 145.155655,101.874987 C135.537655,106.055988 126.286655,110.973229 117.418655,116.559869 C109.750655,121.391315 110.804655,130.577347 115.639655,135.588364 C80.7746553,184.960294 100.715655,251.231811 72.8966553,303.201529 C67.7576553,312.491313 60.9606553,320.821392 56.4936553,330.487277 C49.7036553,345.18014 49.2686553,366.232794 64.6666553,375.99046 C86.3536553,387.630623 98.4556553,364.583738 109.111655,397.992843 C162.329655,514.483264 269.328655,521.043576 370.904655,460.309816 C379.692655,455.421506 388.661655,449.896718 395.297655,442.217084 C410.360655,425.265622 408.586655,401.427629 408.919655,380.259251 C409.105655,367.853918 409.136655,355.446589 409.015655,343.03926 C408.541655,292.781448 391.884655,223.065366 385.414655,173.221564 Z" id="ðŸŽ¨-Background" fill="#fff"></path>
        <path d="M169.0666,33.5077 C230.3966,5.6877 299.9576,-4.8623 366.8576,2.0577 C399.878278,5.46790339 432.464081,12.784251 463.474997,24.6688994 L466.193261,25.7193843 C473.848458,28.6657097 482.100367,31.5902581 487.9176,37.5877 C494.6886,44.5577 496.5876,55.0977 491.7476,63.7077 C487.9876,70.3977 481.2276,75.1967 474.0176,77.7577 C476.5576,79.8377 478.9676,82.1577 481.2276,84.7477 C485.0376,89.0877 485.3276,95.2767 481.2276,99.5577 C473.3276,107.8077 463.0776,113.7767 452.0376,116.6377 C453.2776,122.6277 452.6076,129.2577 449.9476,135.2277 C442.3147,152.3646 420.813385,154.40698 404.267456,153.389458 L403.7676,153.3577 L402.8476,163.8877 C402.3576,169.4977 398.9976,173.8477 393.2976,174.7077 C393.0976,174.7377 392.8966,174.7577 392.6976,174.7767 C401.7176,207.3977 407.1676,241.0267 412.1976,274.4577 C414.8256,291.9087 417.1782,309.4002 419.43036,326.90304 L420.1776,332.7377 C422.5776,351.6077 425.5776,370.6677 426.6176,389.6777 C427.5476,406.9277 424.2576,423.3977 413.6276,437.3177 C404.0876,449.7977 391.0776,459.1477 377.0876,466.0877 C345.4776,481.7767 312.2076,493.4577 277.2476,498.8777 L274.916235,499.236444 C261.421445,501.296219 247.517418,503.032245 234.1676,499.2977 C222.4386,496.0177 210.1376,487.5577 212.7876,473.9677 C213.6776,469.3777 220.0976,469.1777 222.2976,472.7277 L222.80543,473.541144 C225.443517,477.726861 228.33463,481.617033 232.9386,483.7767 C238.3276,486.3177 244.5776,487.0267 250.4676,487.0977 C266.9176,487.2877 284.0476,483.1877 299.8876,479.0777 C329.4676,471.3987 359.8476,458.8777 384.0776,439.9077 C394.3876,431.8477 402.6676,421.7677 405.5876,408.7977 C409.1976,392.8077 405.8776,375.3277 404.2376,359.2577 C400.8626,326.098325 396.845998,293.000473 392.608022,259.939426 L391.7576,253.3277 C388.1886,225.6877 384.4386,198.0377 382.6576,170.2377 C381.9176,169.2277 381.4176,168.0777 381.2176,166.8177 L380.9386,165.0077 L380.9386,165.0077 C380.6976,163.4577 380.6576,162.0377 380.8276,160.7277 C380.8376,155.7077 380.9776,150.7177 381.2676,145.6967 C381.3166,144.7977 381.3576,143.8977 381.3876,143.0077 C376.1676,144.1577 370.9076,145.0877 365.6276,145.8777 C328.5076,151.4677 290.8076,152.8677 253.3876,150.0877 C234.7176,148.6967 216.1886,146.3077 197.7176,143.3177 C188.3166,141.7977 178.9476,140.1177 169.6076,138.2377 C162.8576,136.8877 156.2476,135.0577 149.6076,133.3377 C142.7576,143.3077 139.0576,155.5777 139.7776,167.6277 C140.5876,181.3777 149.7476,193.8477 147.1776,207.8977 C144.7656,221.0467 133.5003,225.1237 122.378289,228.380251 L117.647948,229.746916 C114.008809,230.809438 111.366323,231.834509 110.7076,236.2077 C109.5776,243.7177 110.9676,252.1677 111.2576,259.7177 C111.6076,268.6477 112.0666,277.5777 112.2776,286.5077 C112.3876,291.1277 112.5666,295.7677 112.5576,300.3877 C112.5476,303.6677 112.0576,305.9077 110.7876,308.0267 C111.7676,309.2577 112.6466,310.5877 113.4276,311.9977 C113.6776,312.4577 113.0576,312.9467 112.6886,312.5677 C111.6976,311.5377 110.6466,310.6077 109.5376,309.7767 C108.9776,310.4677 108.3276,311.1677 107.5666,311.9177 L107.5076,311.8377 L107.5076,311.8377 C105.1276,314.2077 101.3476,314.4377 98.3966,311.9177 L97.622266,311.246807 C95.462361,309.353484 93.9782897,307.776666 93.3776,304.6477 C93.3476,304.4877 93.3166,304.3277 93.2976,304.1677 C87.8076,303.9777 82.2276,305.2767 77.2876,308.0077 C69.4576,312.3377 63.9476,318.5077 60.6886,326.1277 C61.9876,327.6477 63.5076,329.0077 65.2776,330.1477 C65.5276,330.3177 65.3076,330.6877 65.0376,330.5577 C63.2276,329.7077 61.6076,328.6577 60.1576,327.4277 C58.9876,330.4277 58.1676,333.6477 57.6676,337.0577 C55.9076,349.0977 59.0476,363.8077 69.9276,370.6677 C74.6376,373.6377 80.0176,375.2477 85.5976,375.2677 C88.3166,375.2767 90.6676,374.8177 93.3076,374.1677 C95.0976,373.7277 96.8776,373.0877 98.7476,373.0877 C100.3476,373.0877 101.8276,373.4877 103.1976,374.2877 L102.817638,374.320971 C101.894271,374.407638 102.071886,374.4467 103.3576,374.4467 C107.3576,374.6177 109.6466,378.6777 107.8076,382.2077 L107.566306,382.753053 C107.515498,382.863292 107.472457,382.954271 107.4386,383.0267 L107.293288,383.963052 C107.2788,384.0521 107.2636,384.1437 107.2476,384.2377 L107.192044,384.42733 C107.182044,384.4577 107.170933,384.4877 107.1576,384.5177 L113.156638,393.666016 C120.511886,404.857394 128.031171,416.005557 136.5876,426.2277 C142.5876,433.3977 148.9476,440.4277 155.6676,446.9377 C161.7076,452.7877 168.9476,455.6077 175.7876,460.2077 C179.4386,462.6477 180.5076,467.7577 177.1886,471.0477 C167.4476,480.7177 153.6576,473.0377 145.6676,465.1777 C138.1076,457.7277 131.5776,448.7677 125.9476,439.7977 C115.9576,423.8477 108.0076,406.8877 104.5276,388.4777 C103.0776,389.8077 101.2276,390.6377 99.3576,391.2877 C95.6076,392.5877 91.4776,393.1277 87.5176,393.2677 C79.9276,393.5177 72.3276,391.6777 65.4976,388.4177 C37.7076,375.1677 33.6276,335.4877 50.6176,312.0877 C48.3266909,305.444064 47.0471661,298.23551 45.65706,292.088454 L45.0246343,289.340608 C37.9999759,258.647793 33.2818,226.33292 45.7376,196.2577 C47.3376,192.3777 49.1376,188.5977 51.2676,184.9777 C52.9776,182.0677 55.9176,178.9677 56.7276,175.6577 C58.5276,168.3877 47.4176,160.7477 44.1776,154.9777 C40.3676,148.2077 39.8276,140.2177 45.0176,134.0267 C45.6776,133.2477 46.3966,132.5267 47.1776,131.8977 C42.2576,122.9777 42.0276,111.7577 48.5076,102.9577 C52.7676,97.1577 59.2676,93.0977 66.3676,91.8677 C70.7076,91.1177 75.9276,91.3977 80.6976,92.7377 C106.8166,68.4877 136.6176,48.2277 169.0666,33.5077 Z M68.7671,336.9378 C75.7381,330.7878 83.4381,327.5678 92.9381,328.3778 C102.4881,329.1968 113.9881,333.1478 119.5971,341.3378 C124.0281,347.8078 114.9981,357.2978 108.4981,352.4378 C102.5781,348.0078 98.6271,343.0078 91.2781,340.6278 C84.6771,338.4978 76.5071,337.1278 69.5971,338.3478 C68.8371,338.4778 68.0781,337.5378 68.7671,336.9378 Z" id="ðŸ–-Ink" fill="#000"></path>
    </g><g transform="translate(531.000000, 366.000000)">
        <path d="M157.853264,261.089186 L159.986434,260.522285 C167.625732,258.441025 175.553661,255.136935 182.8485,259.665 C185.4825,261.3 185.8795,264.777 183.7975,267.027 C177.888371,273.411339 169.166228,272.172661 161.174911,272.236758 L160.7825,272.241 C152.7425,272.352 144.7625,271.951 136.8055,270.798 C135.7565,270.646 135.5495,268.903 136.5025,268.485 C143.4305,265.447824 150.556036,263.052862 157.853264,261.089186 L157.853264,261.089186 Z M170.814304,144.367155 C178.365682,148.9572 189.871664,159.660291 181.748119,171.039573 C172.185929,181.073062 158.418535,169.568982 151.634201,164.366134 C145.343449,160.333898 138.275437,170.704507 144.112,175.412823 C193.135736,211.708059 213.030606,145.567387 174.633685,138.970386 C170.406047,138.243425 168.835891,142.947174 170.814304,144.367155 Z M223.3163,84.0053 C235.4983,83.6323 235.5093,102.9853 223.3163,102.9333 C219.6763,102.9173 216.0363,102.9163 212.3963,102.9083 C214.5113,110.6193 213.3033,119.8143 209.4833,126.2913 C206.9633,130.5663 200.9323,131.3433 197.4093,127.8473 C191.3273,121.8113 190.1283,112.9843 192.2773,104.9803 L191.8353,103.9333 L191.8353,103.9333 C191.6913,103.5903 191.5883,103.2433 191.5043,102.8943 C179.738967,102.9043 167.973633,102.932522 156.2083,102.951707 L138.5603,102.9703 C127.1023,102.9743 115.6393,103.0673 104.1803,102.9603 C104.3213,103.1733 104.4623,103.3853 104.5773,103.6283 C105.2923,105.1333 105.5953,107.0333 105.8203,108.6603 C106.2043,111.4523 106.1583,114.4593 105.7183,117.2403 C105.3973,119.2723 104.8073,121.6923 103.6763,123.6073 L103.6693,123.6473 L103.6693,123.6473 C103.1363,125.9193 102.4633,128.0943 100.7063,129.7333 C100.1783,130.2243 99.6633,130.5743 99.1193,130.8223 C98.0923,131.8973 96.7703,132.6083 95.0333,132.630932 C94.1113,132.6413 93.1003,132.3723 92.1203,131.9903 C90.6133,132.1163 89.0573,131.4343 87.7243,130.8303 C86.6553,130.3453 85.6743,129.7013 84.8833,128.8613 C84.5123,128.7733 84.1383,128.6283 83.7643,128.3973 C81.4723,126.9873 80.5963,124.1613 80.4773,121.6093 C80.4693,121.4543 80.4753,121.2913 80.4703,121.1343 C80.3853,120.7883 80.3093,120.4403 80.2513,120.0903 C79.4893,115.5553 80.4153,110.4483 81.3853,106.0413 C81.6293,104.9383 81.8303,103.6573 82.1293,102.4183 C79.8423,102.3293 77.5573,102.2413 75.2703,102.1473 C69.5423,101.9133 62.5513,102.6803 57.2523,100.2593 C56.8663,100.0843 56.9703,99.5703 57.2523,99.3693 C62.1445222,95.8722167 69.7457336,95.3062483 75.6375743,94.1545348 L76.1383,94.0543 C83.1643,92.6133 90.1863,91.4013 97.2833,90.3663 C110.9443,88.3743 124.7803,87.3023 138.5603,86.5303 C166.7733,84.9503 195.0743,84.8683 223.3163,84.0053 Z" id="ðŸ–-Ink" fill="#000000"></path>
    </g><g transform="translate(494.999934, 517.999659)"></g><g transform="translate(419.000000, 421.000000)">
        <path d="M372.3111,95.4577 C360.1701,108.0027 339.9021,111.6027 323.7491,104.8747 C282.2731,87.5457 302.5741,33.4957 334.5611,18.9807 C338.5571,17.9847 343.8941,15.6217 348.7611,15.0857 C349.2011,14.8697 350.1591,15.4947 351.3201,14.9037 C386.5911,18.8417 394.6231,73.5937 372.3111,95.4577 M238.5331,98.6687 C224.9161,116.7297 199.6001,122.3017 178.9161,113.9057 C138.0541,97.8137 152.5471,49.8847 180.5041,31.0947 C239.5611,8.9037 263.9481,65.3677 238.5331,98.6687 M149.9531,58.6507 C149.9151,58.6327 149.8771,58.6237 149.8381,58.6057 C150.0541,58.5107 150.2701,58.4157 150.4851,58.3187 C150.4151,58.5017 150.3391,58.6827 150.2711,58.8657 C150.1651,58.7927 150.0721,58.7077 149.9531,58.6507 M400.4231,39.1277 C397.0891,39.1347 392.2731,39.6827 389.5131,41.9957 C382.7071,19.0427 357.5851,-2.2003 335.7371,13.2897 C318.5321,18.8227 305.7651,31.0937 298.5091,47.4077 C285.4261,39.6257 264.8541,42.9487 253.5091,53.2397 C246.0791,28.6887 227.7931,20.0917 206.0281,18.8227 C182.2721,14.9317 158.5941,38.0027 151.2061,56.5107 C145.0631,55.8117 135.8841,53.8567 130.1051,57.6477 C92.5981,47.8117 27.0231,42.3887 19.3981,47.8537 C13.9641,49.9387 10.9821,62.7647 18.5721,63.4567 C25.1861,62.5177 17.8001,54.0587 24.4671,53.1357 C59.9901,50.9337 94.4751,58.0877 129.6221,61.0897 C132.7601,65.3107 142.8991,66.7227 148.3081,65.0267 C139.7891,96.4227 158.1791,117.7827 185.7341,124.1807 C228.4011,133.9817 265.5221,95.8137 254.3651,56.1137 C267.2901,49.6837 282.1571,49.9597 296.2371,53.3467 C272.7091,139.9367 412.1661,136.0517 390.3851,44.9627 C404.8801,52.1727 408.0281,40.5827 400.4231,39.1277" id="ðŸ–-Ink" fill="#000000"></path>
    </g></g></svg>